<svg xmlns="http://www.w3.org/2000/svg" xmlns:xlink="http://www.w3.org/1999/xlink" width="3410" height="999" viewBox="0 0 3410 999">
  <defs>
    <clipPath id="clip-Web_1920_69">
      <rect width="3410" height="999"/>
    </clipPath>
  </defs>
  <g id="Web_1920_69" data-name="Web 1920 – 69" clip-path="url(#clip-Web_1920_69)">
    <g id="mobkii-logo" transform="translate(164 16.4)">
      <path id="Path_1753" data-name="Path 1753" d="M329.6,382.4a100,100,0,1,1-100,100A100.036,100.036,0,0,1,329.6,382.4Z" fill="#2274e5"/>
      <g id="Group_117" data-name="Group 117" transform="translate(5885 3618)">
        <circle id="Ellipse_163" data-name="Ellipse 163" cx="329.2" cy="329.2" r="329.2" transform="translate(-5885 -3464.4)" fill="none"/>
        <circle id="Ellipse_164" data-name="Ellipse 164" cx="269.2" cy="269.2" r="269.2" transform="translate(-5825 -3404.4)" fill="none" stroke="#2274e5" stroke-width="120"/>
      </g>
      <g id="Group_118" data-name="Group 118">
        <path id="Path_1754" data-name="Path 1754" d="M1361.3,697h-112V463.2L1126.8,697h-71.4L932.2,461.8V697h-112V228H933.6l157.5,290.5L1248.6,228h112.7V697Z" fill="#fff"/>
        <path id="Path_1755" data-name="Path 1755" d="M1806.5,521.3c0,111.3-88.2,185.5-192.5,185.5-106.4,0-194.6-74.2-194.6-185.5,0-110.6,88.2-184.8,194.6-184.8C1718.3,336.5,1806.5,410.7,1806.5,521.3Zm-107.8,0c0-54.6-41.3-91-84.7-91-45.5,0-86.8,36.4-86.8,91,0,55.3,41.3,91,86.8,91C1657.4,612.3,1698.7,576.6,1698.7,521.3Z" fill="#fff"/>
        <path id="Path_1756" data-name="Path 1756" d="M2257.3,521.3c0,111.3-78.4,186.2-171.5,186.2-45.5,0-81.9-14-109.2-38.5v28h-112V158h112V373.6c27.3-24.5,63.7-38.5,109.2-38.5C2178.9,335.1,2257.3,410.7,2257.3,521.3Zm-109.9,0c0-53.9-35.7-91-84.7-91-45.5,0-86.1,37.1-86.1,91,0,54.6,40.6,91,86.1,91C2111.7,612.3,2147.4,575.9,2147.4,521.3Z" fill="#fff"/>
        <path id="Path_1757" data-name="Path 1757" d="M2574.4,697l-93.8-119.7-53.2,60.2V697h-112V158h112V486.3l126.7-140.7H2685l-129.5,147L2712.3,697Z" fill="#fff"/>
        <path id="Path_1758" data-name="Path 1758" d="M2877.5,242c0,35.7-27.3,62.3-65.1,62.3S2748,277.7,2748,242c0-34.3,26.6-63.7,64.4-63.7S2877.5,207.7,2877.5,242ZM2756.4,697V345.6h112V697Z" fill="#fff"/>
        <path id="Path_1759" data-name="Path 1759" d="M3081.9,242c0,35.7-27.3,62.3-65.1,62.3s-64.4-26.6-64.4-62.3c0-34.3,26.6-63.7,64.4-63.7S3081.9,207.7,3081.9,242ZM2960.8,697V345.6h112V697Z" fill="#fff"/>
      </g>
    </g>
  </g>
</svg>
