<svg xmlns="http://www.w3.org/2000/svg" xmlns:xlink="http://www.w3.org/1999/xlink" width="933.742" height="491.206" viewBox="0 0 933.742 491.206"><defs><clipPath id="clip-path"><path id="Path_89" data-name="Path 89" d="M227.965,242.33a3.878,3.878,0,1,1-6.661,0h-4.486a3.923,3.923,0,0,1,.547,1.962,3.878,3.878,0,1,1-7.208-1.962h-4.562a3.772,3.772,0,0,1,.547,1.962,3.878,3.878,0,1,1-7.208-1.962h-4.486a3.772,3.772,0,0,1,.547,1.962,3.878,3.878,0,1,1-7.741,0,3.772,3.772,0,0,1,.547-1.962h-4.486a3.878,3.878,0,1,1-7.208,1.962,3.771,3.771,0,0,1,.547-1.962h-4.41a3.878,3.878,0,1,1-6.661,0H162.77v80.1h66.67v-80.1Z" transform="translate(-162.77 -242.33)" fill="none"></path></clipPath></defs><g id="Telecommuting-pana" transform="translate(-82.055 -134.808)"><g id="Chair--inject-1" transform="translate(626.606 409.853)"><path id="Path_1" data-name="Path 1" d="M469.941,337.219a24.94,24.94,0,0,1,24.332-20.941c52.527-.7,186.262-1.9,193.44,3.787,8.942,7.1,13.687,10.736,12.911,22.005C699.97,352.412,688.7,531.085,688.7,531.085H438.37Z" transform="translate(-438.37 -315.669)" fill="#455a64"></path><path id="Path_2" data-name="Path 2" d="M584.757,526.447a3.8,3.8,0,0,1-.076-.532,7.524,7.524,0,0,0-.122-1.521c-.107-1.4-.259-3.406-.441-5.946s-.4-5.764-.517-9.444-.365-7.878-.365-12.516c0-2.327,0-4.76-.076-7.284s0-5.171.091-7.893c0-5.46.319-11.284.578-17.413.7-12.257,1.855-25.7,3.726-39.737s4.425-27.374,7.026-39.311c1.384-5.977,2.661-11.664,4.091-16.941.7-2.631,1.323-5.186,2.023-7.6s1.384-4.76,2.023-7c1.247-4.471,2.6-8.44,3.7-11.968s2.144-6.509,3.042-8.957,1.521-4.289,2.007-5.627l.548-1.521c.122-.319.2-.487.2-.487a2.4,2.4,0,0,1-.122.517l-.471,1.521c-.441,1.353-1.065,3.254-1.87,5.688s-1.84,5.46-2.889,8.988-2.372,7.513-3.574,11.984c-.639,2.236-1.293,4.562-1.977,7.011s-1.293,5-1.977,7.6c-1.4,5.262-2.646,10.965-4.015,16.926-2.57,11.984-5,25.245-6.95,39.266s-3.042,27.374-3.787,39.661c-.274,6.083-.608,11.938-.654,17.4,0,2.722-.137,5.353-.137,7.878v7.269c0,4.638.167,8.836.258,12.516s.228,6.843.365,9.429.228,4.562.289,5.977V525.9a2.857,2.857,0,0,1,.061.548Z" transform="translate(-362.986 -310.941)" fill="#263238"></path><path id="Path_3" data-name="Path 3" d="M494.017,375.278a.888.888,0,0,0,.38-.152,3.683,3.683,0,0,1,1.156,0,5.216,5.216,0,0,1,3.665,2.16,5.976,5.976,0,0,1,.365,6.235,7.984,7.984,0,0,1-2.433,2.935,7.6,7.6,0,0,1-3.878,1.353,6.3,6.3,0,0,1-4-1.049A4.988,4.988,0,0,1,487.2,383.5a6.8,6.8,0,0,1,1.916-5.992c2.813-2.4,5.292-2.479,5.247-2.251s-.137,0-.38,0a6.328,6.328,0,0,0-1.065.365,11,11,0,0,0-3.406,2.205,6.326,6.326,0,0,0-1.6,5.46,4.243,4.243,0,0,0,1.795,2.753,5.505,5.505,0,0,0,3.5.9,6.827,6.827,0,0,0,3.483-1.2,6.919,6.919,0,0,0,2.236-2.616,5.444,5.444,0,0,0-.167-5.6,5.186,5.186,0,0,0-3.239-2.175,12.171,12.171,0,0,0-1.506-.076Z" transform="translate(-412.992 -284.731)" fill="#263238"></path><path id="Path_4" data-name="Path 4" d="M529.219,360.445c0,.167-2.585-.3-6.722.076a30.81,30.81,0,0,0-25.245,17.747c-1.779,3.756-2.205,6.326-2.372,6.3a7.171,7.171,0,0,1,.289-1.81,25.862,25.862,0,0,1,1.521-4.714,29.959,29.959,0,0,1,25.746-18.021,26.993,26.993,0,0,1,4.973.137A6.98,6.98,0,0,1,529.219,360.445Z" transform="translate(-408.942 -292.603)" fill="#263238"></path><path id="Path_5" data-name="Path 5" d="M469.72,395.263a5.264,5.264,0,0,1,.593-1.293,19.415,19.415,0,0,1,2.205-3.163A23.465,23.465,0,0,1,495.6,382.93a20.762,20.762,0,0,1,3.68,1.171,5.5,5.5,0,0,1,1.262.654c0,.152-1.886-.715-5.049-1.277a24.454,24.454,0,0,0-22.568,7.695C470.785,393.545,469.857,395.339,469.72,395.263Z" transform="translate(-422.044 -280.932)" fill="#263238"></path><path id="Path_6" data-name="Path 6" d="M505.476,401.028a9.7,9.7,0,0,1-2.57-1.855,28.7,28.7,0,0,1-4.973-5.855,28.041,28.041,0,0,1-3.239-6.95,9.124,9.124,0,0,1-.624-3.117,56.135,56.135,0,0,0,4.562,9.642,58.868,58.868,0,0,0,6.843,8.136Z" transform="translate(-409.364 -280.477)" fill="#263238"></path><path id="Path_7" data-name="Path 7" d="M549.6,376.67a1.679,1.679,0,0,1,.38-.152,3.683,3.683,0,0,1,1.156,0,5.277,5.277,0,0,1,3.665,2.16,6.083,6.083,0,0,1,.38,6.235,8.029,8.029,0,0,1-2.448,2.935,7.6,7.6,0,0,1-3.878,1.354,6.3,6.3,0,0,1-4-1.049,5.05,5.05,0,0,1-2.068-3.254,6.8,6.8,0,0,1,1.9-6.1c2.813-2.388,5.292-2.479,5.247-2.251s-.137,0-.38.076a6.324,6.324,0,0,0-1.065.365,10.994,10.994,0,0,0-3.406,2.205,6.326,6.326,0,0,0-1.521,5.459,4.3,4.3,0,0,0,1.795,2.753,5.506,5.506,0,0,0,3.5.9,6.829,6.829,0,0,0,3.483-1.2,6.921,6.921,0,0,0,2.235-2.616,5.444,5.444,0,0,0-.167-5.6,5.185,5.185,0,0,0-3.239-2.175A12.165,12.165,0,0,0,549.6,376.67Z" transform="translate(-384.054 -284.01)" fill="#263238"></path><path id="Path_8" data-name="Path 8" d="M584.748,361.856c0,.167-2.585-.3-6.722.076a30.81,30.81,0,0,0-25.214,17.686c-1.779,3.756-2.205,6.326-2.372,6.3a7.181,7.181,0,0,1,.289-1.81,25.855,25.855,0,0,1,1.521-4.714,29.959,29.959,0,0,1,25.716-18.021,27,27,0,0,1,4.973.137,6.979,6.979,0,0,1,1.81.35Z" transform="translate(-380.009 -291.9)" fill="#263238"></path><path id="Path_9" data-name="Path 9" d="M525.3,396.65a5.272,5.272,0,0,1,.593-1.293,20.45,20.45,0,0,1,2.205-3.163,23.541,23.541,0,0,1,23.085-7.878,21.427,21.427,0,0,1,3.7,1.171,4.565,4.565,0,0,1,1.247.669c0,.137-1.886-.73-5.049-1.293a24.423,24.423,0,0,0-22.553,7.7C526.365,394.932,525.437,396.727,525.3,396.65Z" transform="translate(-393.101 -280.205)" fill="#263238"></path><path id="Path_10" data-name="Path 10" d="M561.056,402.392a9.7,9.7,0,0,1-2.57-1.855,29.186,29.186,0,0,1-4.973-5.855,28.046,28.046,0,0,1-3.239-6.95,9.124,9.124,0,0,1-.623-3.041,56.267,56.267,0,0,0,4.562,9.626A58.859,58.859,0,0,0,561.056,402.392Z" transform="translate(-380.421 -279.727)" fill="#263238"></path></g><g id="Cushion--inject-1" transform="translate(637.252 293.577)"><path id="Path_11" data-name="Path 11" d="M705.784,321.665C638.414,255.1,554.53,239.21,554.53,239.21c-49.881,29.746-83.535,79.672-109.16,139.59,42.976,39.768,98.241,77.893,145.536,81.391C665.7,441.288,705.784,321.665,705.784,321.665Z" transform="translate(-445.37 -239.21)" fill="#2274e5"></path><g id="Group_1" data-name="Group 1" opacity="0.4"><path id="Path_12" data-name="Path 12" d="M705.784,321.665C638.414,255.1,554.53,239.21,554.53,239.21c-49.881,29.746-83.535,79.672-109.16,139.59,42.976,39.768,98.241,77.893,145.536,81.391C665.7,441.288,705.784,321.665,705.784,321.665Z" transform="translate(-445.37 -239.21)"></path></g><path id="Path_13" data-name="Path 13" d="M652.434,368.32a2.406,2.406,0,0,1-.167-.456l-.426-1.369c-.38-1.247-.912-3.042-1.612-5.353l-5.916-20.12.289.167-33.046,10.645.213-.2a.978.978,0,0,1-.091.167c-.091.122-.319.182-.4.122a.426.426,0,0,1-.213-.213,1.362,1.362,0,0,1,0-.243V329.236c0-3.984-.167-8.03-.4-12.166a109.065,109.065,0,0,0-1.308-12.607l.471.3-30.217,7.011-18.249,4.243-.4.091v-.4c-2.707-14.2-5.292-27.693-7.6-40.133l.456.289a270.931,270.931,0,0,1-47.995,8.379h-.243v-.243c-1.262-10.341-2.266-18.553-2.95-24.226-.335-2.783-.578-4.958-.76-6.448-.076-.715-.122-1.262-.167-1.673a5.373,5.373,0,0,1,0-.563,1.99,1.99,0,0,1,.107.547,15.175,15.175,0,0,0,.258,1.658c.2,1.521.5,3.665.882,6.448.745,5.657,1.825,13.869,3.178,24.2l-.274-.228a275.738,275.738,0,0,0,47.569-8.44l.38-.106v.38c2.388,12.44,4.988,25.929,7.71,40.117l-.471-.3,18.249-4.258,30.05-6.965.4-.091v.4a105.362,105.362,0,0,1,1.293,12.7c.228,4.152.319,8.227.38,12.166s0,7.847,0,11.6v10.615h0c-.076,0-.152,0-.2.076h0l-.2-.122-.167-.076.38-.122,33.229-10.615.228-.076v.243l5.7,20.18,1.521,5.384.365,1.384a1.708,1.708,0,0,1,.152.532Z" transform="translate(-416.033 -233.018)" fill="#2274e5"></path><path id="Path_14" data-name="Path 14" d="M647.794,380.974a1.774,1.774,0,0,1-.152-.35c-.107-.274-.243-.623-.411-1.08l-1.521-4.2c-1.308-3.711-3.194-9.125-5.6-15.983l.259.137-39.387,10.524-.365.091v-.365c-.943-7.254-1.992-15.025-3.148-23.222s-2.388-16.835-3.969-25.7l.471.3-28.894,6.706L545.553,332.4l-.4.091v-.411c-2.707-14.189-5.277-27.678-7.6-40.117l.456.274a271.129,271.129,0,0,1-47.995,8.395h-.243V300.4c-1.262-10.341-2.266-18.568-2.95-24.226-.319-2.8-.578-4.958-.745-6.463-.076-.7-.137-1.262-.182-1.658a3.292,3.292,0,0,1,0-.578,3.67,3.67,0,0,1,.106.563,14.506,14.506,0,0,0,.243,1.658c.2,1.521.5,3.65.882,6.433.745,5.672,1.825,13.869,3.178,24.2l-.274-.213a275.741,275.741,0,0,0,47.737-8.592l.38-.106v.38c2.388,12.44,4.988,25.853,7.725,40.117l-.471-.319,19.511-4.562,28.894-6.676.4-.091v.4c1.521,8.9,2.783,17.534,3.939,25.731s2.16,15.983,3.042,23.237l-.411-.274,39.448-10.3h.183l.076.182c2.312,6.889,4.136,12.318,5.4,16.044.593,1.84,1.064,3.254,1.4,4.243.137.456.258.806.334,1.08Z" transform="translate(-424.273 -224.488)" fill="#fafafa"></path><path id="Path_15" data-name="Path 15" d="M629.178,403.659V402.4c0-.821.167-2.083.3-3.665.289-3.254.7-7.984,1.232-14.037l.258.213-40.847,13.565-.35.122v-.365c-3.224-16.728-7.026-36.5-11.162-57.926l.471.3L554.1,346.372l-23.374,5.414-.4.091-.076-.4c-2.707-14.2-5.277-27.693-7.6-40.117l.441.274a271.6,271.6,0,0,1-47.995,8.395h-.243v-.243c-1.262-10.341-2.266-18.568-2.95-24.226-.319-2.8-.578-4.958-.745-6.448-.076-.715-.137-1.262-.182-1.658a3.294,3.294,0,0,1,0-.578,2.254,2.254,0,0,0,.107.563c.106.365.137.943.243,1.658.2,1.521.5,3.65.882,6.433.745,5.657,1.81,13.854,3.178,24.2l-.274-.213a276,276,0,0,0,47.843-8.577l.38-.106.076.38c2.388,12.425,4.988,25.853,7.725,40.1l-.471-.3,23.374-5.429,24.956-5.733.4-.091v.411c4.076,21.427,7.847,41.212,11.025,57.941l-.411-.243,40.923-13.337.274-.091v.3q-.913,9.124-1.414,14.006c-.167,1.521-.3,2.8-.4,3.665A7.02,7.02,0,0,1,629.178,403.659Z" transform="translate(-432.043 -214.386)" fill="#2274e5"></path><path id="Path_16" data-name="Path 16" d="M581.16,424.146l-.091-.289-.243-.867c-.2-.806-.487-1.931-.867-3.361-.73-3.042-1.794-7.33-3.148-12.8s-2.9-12.166-4.714-19.77-3.771-16.257-5.6-25.716l.426.289-48.345,11.254-.411.106-.076-.411c-.243-1.323-.517-2.753-.791-4.182-2.4-12.546-4.714-24.636-6.874-35.935l.471.289a269.518,269.518,0,0,1-47.995,8.395h-.274v-.274c-1.232-10.174-2.236-18.4-2.92-24.1-.335-2.813-.578-5-.76-6.524-.076-.715-.137-1.277-.167-1.7a2.754,2.754,0,0,1,0-.578,2.651,2.651,0,0,1,.122.578l.243,1.673c.213,1.521.517,3.711.9,6.509.76,5.7,1.84,13.915,3.178,24.089l-.289-.243a275.547,275.547,0,0,0,47.843-8.577l.38-.106.091.4c2.159,11.314,4.486,23.389,6.9,35.935.274,1.43.547,2.859.791,4.182l-.471-.3L566.85,360.9l.35-.076.076.365c1.779,9.429,3.771,18.036,5.475,25.7s3.27,14.341,4.562,19.876,2.266,9.824,2.95,12.835c.335,1.521.578,2.585.76,3.406l.183.867C581.16,424.039,581.175,424.146,581.16,424.146Z" transform="translate(-438.392 -203.408)" fill="#fafafa"></path><path id="Path_17" data-name="Path 17" d="M536.879,390.456a12.827,12.827,0,0,1-.563-2.1l-1.308-5.87c-1.065-4.973-2.524-11.938-4.121-19.77l.471.3-4.562,1.065c-8.9,2.068-16.972,3.893-22.811,5.171l-6.935,1.521a17.574,17.574,0,0,1-2.57.441,15.006,15.006,0,0,1,2.494-.745l6.889-1.718c5.809-1.43,13.869-3.346,22.811-5.414l4.562-1.049.4-.091v.4c1.521,7.893,2.92,14.873,3.863,19.876.426,2.418.791,4.4,1.065,5.916a13.832,13.832,0,0,1,.319,2.068Z" transform="translate(-419.796 -175.163)" fill="#2274e5"></path><path id="Path_18" data-name="Path 18" d="M496.353,372.678a13.311,13.311,0,0,1-.563-2.144c-.335-1.521-.76-3.528-1.262-5.916-1.034-4.988-2.4-11.907-3.878-19.557-.076-.471-.167-.928-.259-1.369l.5.3c-7.239,1.962-13.808,3.361-18.568,4.212-2.372.441-4.3.745-5.642.928a10.5,10.5,0,0,1-2.083.213,11.953,11.953,0,0,1,2.038-.5l5.581-1.171c4.73-1,11.254-2.479,18.462-4.441l.411-.107.076.411.274,1.369c1.521,7.6,2.737,14.584,3.635,19.6.411,2.4.745,4.41,1.019,5.961A11.755,11.755,0,0,1,496.353,372.678Z" transform="translate(-435.356 -185.093)" fill="#2274e5"></path><path id="Path_19" data-name="Path 19" d="M448.794,337.052a29.871,29.871,0,0,1-1.217-9.642,15.33,15.33,0,0,1,1,4.775A14.858,14.858,0,0,1,448.794,337.052Z" transform="translate(-444.232 -193.28)" fill="#2274e5"></path><path id="Path_20" data-name="Path 20" d="M656.481,351.856a1.262,1.262,0,0,1-.091-.38,8.5,8.5,0,0,0-.228-1.11c-.183-1.019-.441-2.464-.791-4.334-.684-3.832-1.658-9.4-2.9-16.424l.258.182-22.979,3.68h-.3v-.289c-2.312-13.824-5.079-30.415-8.136-48.664l.456.3-31.358,7.3-15.983,3.7-.38.091-.091-.38c-3.391-13.808-6.554-26.887-8.927-38.947l.4.289-46.672,7.163h-.228v-.243c-.9-7.482-1.612-13.4-2.114-17.489-.213-2.007-.4-3.559-.517-4.653a9.576,9.576,0,0,0-.122-1.186,1.2,1.2,0,0,1,0-.411v.4l.183,1.186.639,4.638c.547,4.091,1.338,9.991,2.327,17.458l-.258-.2,46.626-7.421h.335l.076.335c2.4,12.029,5.581,25.108,8.988,38.9l-.471-.289,15.983-3.711,31.358-7.269.4-.091v.4c3.041,18.249,5.7,34.977,7.969,48.664l-.335-.243,22.994-3.528h.228v.213c1.156,7.041,2.068,12.622,2.692,16.455.3,1.886.532,3.33.684,4.365.076.471.122.836.167,1.125a1.428,1.428,0,0,1,.137.426Z" transform="translate(-408.72 -238.773)" fill="#fafafa"></path><path id="Path_21" data-name="Path 21" d="M647.7,292.68a1.868,1.868,0,0,1-.426.167l-1.262.38c-1.095.365-2.753.73-4.821,1.521a99.473,99.473,0,0,0-16.911,7.6A118.236,118.236,0,0,0,602.1,318.487a152.9,152.9,0,0,0-22.036,25.351A226.582,226.582,0,0,0,563.2,372.976c-4.562,9.292-8.242,17.884-11.223,25.138s-5.292,13.17-6.9,17.245c-.806,1.992-1.429,3.574-1.886,4.7-.2.487-.365.9-.5,1.2a2.33,2.33,0,0,1-.2.411,2.028,2.028,0,0,1,.122-.441c.107-.319.258-.73.441-1.232q.608-1.7,1.734-4.745c1.521-4.121,3.772-10.052,6.676-17.352s6.539-15.907,11.086-25.26a223.467,223.467,0,0,1,16.881-29.29,150.293,150.293,0,0,1,22.188-25.442A115.868,115.868,0,0,1,624,301.835,92.488,92.488,0,0,1,641.1,294.5c2.083-.715,3.771-1.034,4.882-1.353l1.277-.3A2.756,2.756,0,0,1,647.7,292.68Z" transform="translate(-394.794 -211.365)" fill="#263238"></path></g><g id="Notes--inject-1" transform="translate(207.487 231.485)"><path id="Path_22" data-name="Path 22" d="M294.22,206.338l.213,4.091a3.572,3.572,0,1,1,.289,5.444l.228,4.106a3.437,3.437,0,0,1,2.235-.973,3.564,3.564,0,1,1,.38,7.117,3.528,3.528,0,0,1-2.327-.73l.213,4.106a3.513,3.513,0,0,1,2.236-.973,3.559,3.559,0,0,1,.38,7.1,3.482,3.482,0,0,1-2.327-.715l.228,4.106a3.436,3.436,0,0,1,2.236-.973,3.559,3.559,0,0,1,.38,7.1,3.437,3.437,0,0,1-2.327-.73l.213,4.121a3.559,3.559,0,1,1,.289,5.4l.228,4.121a3.437,3.437,0,0,1,2.236-.973,3.559,3.559,0,0,1,.38,7.1,3.437,3.437,0,0,1-2.327-.73l.137,2.555,109.631-2.631-5.551-63.872Z" transform="translate(-94.317 -197.792)" fill="#ebebeb"></path><path id="Path_23" data-name="Path 23" d="M292.62,204.22l.228,4.106a3.467,3.467,0,0,1,2.236-.973,3.559,3.559,0,1,1-1.947,6.372l.213,4.106a3.572,3.572,0,1,1,.289,5.444l.228,4.106a3.467,3.467,0,0,1,2.236-.973,3.559,3.559,0,1,1-1.947,6.387l.213,4.106a3.513,3.513,0,0,1,2.235-.973,3.559,3.559,0,0,1,.38,7.1,3.482,3.482,0,0,1-2.327-.715l.228,4.106a3.467,3.467,0,0,1,2.235-.973,3.559,3.559,0,0,1,.38,7.1,3.467,3.467,0,0,1-2.327-.73l.213,4.121a3.559,3.559,0,1,1,.289,5.4l.137,2.555,109.616-5.855-3.194-59.659Z" transform="translate(-95.15 -198.38)" fill="#f5f5f5"></path><path id="Path_24" data-name="Path 24" d="M402.6,206.127c0,.228-24.515,1.7-54.747,3.33S293.11,212.21,293.11,212s24.515-1.718,54.747-3.33S402.6,205.944,402.6,206.127Z" transform="translate(-94.895 -194.356)" fill="#e0e0e0"></path><path id="Path_25" data-name="Path 25" d="M402.97,212.41c0,.213-24.514,1.7-54.747,3.33s-54.823,2.753-54.823,2.524,24.5-1.7,54.747-3.315S402.955,212.182,402.97,212.41Z" transform="translate(-94.744 -191.089)" fill="#e0e0e0"></path><path id="Path_26" data-name="Path 26" d="M403.31,218.679c0,.228-24.53,1.718-54.747,3.33s-54.747,2.753-54.823,2.54,24.514-1.7,54.747-3.33S403.3,218.466,403.31,218.679Z" transform="translate(-94.567 -187.823)" fill="#e0e0e0"></path><path id="Path_27" data-name="Path 27" d="M403.64,225.015c0,.213-24.514,1.7-54.747,3.33s-54.823,2.753-54.823,2.54,24.515-1.718,54.747-3.33S403.625,224.726,403.64,225.015Z" transform="translate(-94.395 -184.532)" fill="#e0e0e0"></path><path id="Path_28" data-name="Path 28" d="M403.985,231.24c0,.213-24.515,1.7-54.747,3.315s-54.823,2.768-54.838,2.54,24.515-1.7,54.747-3.33S403.97,231.012,403.985,231.24Z" transform="translate(-94.223 -181.283)" fill="#e0e0e0"></path><rect id="Rectangle_1" data-name="Rectangle 1" width="0.76" height="59.735" transform="translate(212.313 5.055) rotate(-3.06)" fill="#2274e5"></rect><path id="Path_29" data-name="Path 29" d="M312.38,260.989c-.213,0-1.11-13.337-1.992-29.807s-1.414-29.837-1.2-29.852,1.11,13.337,1.992,29.807S312.608,260.974,312.38,260.989Z" transform="translate(-86.548 -196.844)" fill="#e0e0e0"></path><path id="Path_30" data-name="Path 30" d="M299.55,261.674c-.213,0-1.11-13.322-1.992-29.792S296.143,202,296.356,202s1.11,13.322,1.992,29.807S299.778,261.674,299.55,261.674Z" transform="translate(-93.229 -196.495)" fill="#e0e0e0"></path><path id="Path_31" data-name="Path 31" d="M319.41,260.583c-.213,0-1.11-13.337-1.992-29.807S316,201,316.216,201s1.11,13.337,1.992,29.822S319.623,260.568,319.41,260.583Z" transform="translate(-82.887 -197.016)" fill="#e0e0e0"></path><path id="Path_32" data-name="Path 32" d="M326.44,260.239c-.228,0-1.11-13.337-1.992-29.807s-1.414-29.837-1.2-29.852,1.11,13.322,1.992,29.807S326.653,260.224,326.44,260.239Z" transform="translate(-79.226 -197.234)" fill="#e0e0e0"></path><path id="Path_33" data-name="Path 33" d="M333.456,259.859c-.213,0-1.095-13.337-1.977-29.807s-1.43-29.837-1.2-29.852,1.11,13.337,1.992,29.807S333.684,259.844,333.456,259.859Z" transform="translate(-75.567 -197.432)" fill="#e0e0e0"></path><path id="Path_34" data-name="Path 34" d="M340.49,259.474c-.213,0-1.11-13.322-1.992-29.807s-1.414-29.837-1.2-29.837,1.11,13.322,1.992,29.807S340.718,259.474,340.49,259.474Z" transform="translate(-71.91 -197.625)" fill="#e0e0e0"></path><path id="Path_35" data-name="Path 35" d="M347.52,259.109c-.213,0-1.11-13.337-1.992-29.807s-1.414-29.837-1.2-29.852,1.11,13.337,1.992,29.807S347.733,259.094,347.52,259.109Z" transform="translate(-68.249 -197.823)" fill="#e0e0e0"></path><path id="Path_36" data-name="Path 36" d="M354.551,258.729c-.228,0-1.11-13.337-1.992-29.807s-1.43-29.837-1.2-29.852,1.11,13.337,1.992,29.822S354.764,258.714,354.551,258.729Z" transform="translate(-64.589 -198.021)" fill="#e0e0e0"></path><path id="Path_37" data-name="Path 37" d="M361.57,258.359c-.213,0-1.11-13.337-1.992-29.807s-1.414-29.837-1.2-29.852,1.11,13.322,1.992,29.807S361.8,258.344,361.57,258.359Z" transform="translate(-60.932 -198.213)" fill="#e0e0e0"></path><path id="Path_38" data-name="Path 38" d="M385.951,214.179a2.555,2.555,0,0,1-.776.122l-2.251.2-8.227.547c-6.965.441-16.591.973-27.206,1.521s-20.272.928-27.237,1.141-11.3.243-11.284,0l38.475-1.931,27.221-1.262,8.243-.319h2.251A2.448,2.448,0,0,1,385.951,214.179Z" transform="translate(-86.636 -190.166)" fill="#263238"></path><path id="Path_39" data-name="Path 39" d="M388.129,221.356c0,.213-17.686,1.2-39.54,2.205s-39.54,1.642-39.54,1.414,17.671-1.2,39.54-2.205S388.053,221.128,388.129,221.356Z" transform="translate(-86.594 -186.439)" fill="#263238"></path><path id="Path_40" data-name="Path 40" d="M388.9,227.624c0,.228-17.671,1.217-39.54,2.22s-39.54,1.627-39.54,1.414,17.671-1.217,39.54-2.205S388.884,227.411,388.9,227.624Z" transform="translate(-86.193 -183.172)" fill="#263238"></path><path id="Path_41" data-name="Path 41" d="M300.69,208.16a9.581,9.581,0,0,0,3.513,6.083,6.266,6.266,0,1,0,2.3-11.3" transform="translate(-90.948 -196.07)" fill="#e0e0e0"></path><path id="Path_42" data-name="Path 42" d="M300.522,208.119a4.988,4.988,0,1,0,4.714-5.247,4.988,4.988,0,0,0-4.714,5.247Z" transform="translate(-91.039 -196.044)" fill="#455a64"></path><path id="Path_43" data-name="Path 43" d="M298.658,206.392a3.041,3.041,0,1,0,1.15-3.148A3.041,3.041,0,0,0,298.658,206.392Z" transform="translate(-92.049 -196.157)" fill="#455a64"></path><path id="Path_44" data-name="Path 44" d="M300.471,208.765c0-.122.471-.091,1.08-.319a2.89,2.89,0,0,0,1.7-1.642,3.042,3.042,0,0,0-.228-2.388c-.3-.593-.654-.867-.593-.973s.547,0,1.049.654a3.163,3.163,0,0,1,.517,2.965,3.041,3.041,0,0,1-2.312,1.931C300.881,209.115,300.44,208.871,300.471,208.765Z" transform="translate(-91.063 -195.762)" fill="#263238"></path><path id="Path_45" data-name="Path 45" d="M302.129,204.068c.106-.2.852,0,1.688-.182s1.414-.715,1.521-.578-.228,1.065-1.414,1.353S301.947,204.22,302.129,204.068Z" transform="translate(-90.212 -195.826)" fill="#263238"></path><path id="Path_46" data-name="Path 46" d="M303.625,209.793c-.213,0-.426-.928-1.217-1.658s-1.718-.9-1.718-1.11,1.2-.456,2.266.532S303.838,209.839,303.625,209.793Z" transform="translate(-90.948 -193.977)" fill="#263238"></path><path id="Path_47" data-name="Path 47" d="M356.09,205.83a9.626,9.626,0,0,0,3.513,6.083,6.266,6.266,0,1,0,2.3-11.3" transform="translate(-62.098 -197.283)" fill="#e0e0e0"></path><path id="Path_48" data-name="Path 48" d="M365.729,204.695a4.821,4.821,0,1,1-1.593-3.335A4.821,4.821,0,0,1,365.729,204.695Z" transform="translate(-62.096 -197.471)" fill="#2274e5"></path><path id="Path_49" data-name="Path 49" d="M366.088,202.709a2.874,2.874,0,1,1-.948-2A2.889,2.889,0,0,1,366.088,202.709Z" transform="translate(-59.899 -197.554)" fill="#2274e5"></path><path id="Path_50" data-name="Path 50" d="M363.861,205.4a1.53,1.53,0,0,1-1.141.35,2.889,2.889,0,0,1-2.433-1.612,3.041,3.041,0,0,1,.182-2.9c.426-.654.912-.821.958-.745s-.228.411-.456,1a2.935,2.935,0,0,0,0,2.3,2.753,2.753,0,0,0,1.795,1.414C363.405,205.352,363.831,205.276,363.861,205.4Z" transform="translate(-60.061 -197.292)" fill="#263238"></path><path id="Path_51" data-name="Path 51" d="M361.755,201.013c.167.152-.547.912-1.734.776s-1.688-1.049-1.521-1.171.776.3,1.6.4S361.633,200.83,361.755,201.013Z" transform="translate(-60.859 -197.226)" fill="#263238"></path><path id="Path_52" data-name="Path 52" d="M360.735,206.774c-.213,0-.5-1.141.411-2.22s2.159-.958,2.129-.745-.867.471-1.521,1.262S360.963,206.759,360.735,206.774Z" transform="translate(-59.793 -195.627)" fill="#263238"></path><path id="Path_53" data-name="Path 53" d="M239.72,304.7l89.6,11.421-1.2-32.8Z" transform="translate(-122.698 -154.147)" fill="#e0e0e0"></path><rect id="Rectangle_2" data-name="Rectangle 2" width="86.318" height="28.651" transform="translate(119.349 122.657) rotate(4.77)" fill="#455a64"></rect><path id="Path_54" data-name="Path 54" d="M311.9,291.225c0,.213-14.447-.806-32.225-2.3s-32.164-2.859-32.149-3.042,14.447.806,32.225,2.281S311.919,291.012,311.9,291.225Z" transform="translate(-118.631 -152.822)" fill="#263238"></path><path id="Path_55" data-name="Path 55" d="M311.793,296.125c0,.213-14.447-.806-32.225-2.3s-32.164-2.859-32.149-3.042,14.432.806,32.225,2.281S311.809,295.912,311.793,296.125Z" transform="translate(-118.688 -150.27)" fill="#263238"></path><path id="Path_56" data-name="Path 56" d="M258.474,277.75l33.335,2.768-1.749,1.49L292.341,284l-2.722,1.247,2.433,2.159-34.932-2.92,2.175-1.84-1.08-1.977,1.871-.958Z" transform="translate(-113.637 -157.048)" fill="#ebebeb"></path><path id="Path_57" data-name="Path 57" d="M228.734,243.77a3.878,3.878,0,1,1-6.661,0H217.51a3.923,3.923,0,0,1,.547,1.962,3.878,3.878,0,1,1-7.208-1.962h-4.486a3.771,3.771,0,0,1,.547,1.962,3.878,3.878,0,1,1-7.208-1.962H195.14a3.771,3.771,0,0,1,.547,1.962,3.878,3.878,0,1,1-7.741,0,3.772,3.772,0,0,1,.547-1.962h-4.562a3.771,3.771,0,0,1,.547,1.962,3.878,3.878,0,1,1-7.741,0,3.771,3.771,0,0,1,.547-1.962h-4.562a3.878,3.878,0,1,1-6.661,0H163.25v80.022L233.2,327.64l-3.346-83.869Z" transform="translate(-162.52 -174.743)" fill="#e0e0e0"></path><g id="Group_2" data-name="Group 2" transform="translate(0 66.837)" clip-path="url(#clip-path)"><path id="Path_58" data-name="Path 58" d="M227.965,242.33a3.878,3.878,0,1,1-6.661,0h-4.486a3.923,3.923,0,0,1,.547,1.962,3.878,3.878,0,1,1-7.208-1.962h-4.562a3.772,3.772,0,0,1,.547,1.962,3.878,3.878,0,1,1-7.208-1.962h-4.486a3.772,3.772,0,0,1,.547,1.962,3.878,3.878,0,1,1-7.741,0,3.772,3.772,0,0,1,.547-1.962h-4.486a3.878,3.878,0,1,1-7.208,1.962,3.771,3.771,0,0,1,.547-1.962h-4.41a3.878,3.878,0,1,1-6.661,0H162.77v80.1h66.67v-80.1Z" transform="translate(-162.77 -242.33)" fill="#f5f5f5"></path><path id="Path_59" data-name="Path 59" d="M160.453,327.047c-.228,0-.593-19.39-.836-43.311s-.274-43.326,0-43.326.593,19.39.836,43.311S160.666,327.047,160.453,327.047Z" transform="translate(-164.513 -243.33)" fill="#e0e0e0"></path><path id="Path_60" data-name="Path 60" d="M167.5,326.977c-.228,0-.608-19.39-.852-43.311s-.259-43.326,0-43.326.593,19.39.836,43.311S167.709,326.977,167.5,326.977Z" transform="translate(-160.85 -243.366)" fill="#e0e0e0"></path><path id="Path_61" data-name="Path 61" d="M170.983,326.977c-.213,0-.593-19.39-.836-43.311s-.274-43.326,0-43.326.593,19.39.836,43.311S171.2,326.977,170.983,326.977Z" transform="translate(-159.03 -243.366)" fill="#e0e0e0"></path><path id="Path_62" data-name="Path 62" d="M178.091,326.977c-.213,0-.593-19.39-.836-43.311s-.258-43.326,0-43.326.593,19.39.836,43.311S178.319,326.977,178.091,326.977Z" transform="translate(-155.325 -243.366)" fill="#e0e0e0"></path><path id="Path_63" data-name="Path 63" d="M185.2,326.977c-.213,0-.593-19.39-.836-43.311s-.259-43.326,0-43.326.593,19.39.836,43.311S185.429,326.977,185.2,326.977Z" transform="translate(-151.623 -243.366)" fill="#e0e0e0"></path><path id="Path_64" data-name="Path 64" d="M192.351,326.977c-.213,0-.593-19.39-.836-43.311s-.259-43.326,0-43.326.593,19.39.836,43.311S192.518,326.977,192.351,326.977Z" transform="translate(-147.899 -243.366)" fill="#e0e0e0"></path><path id="Path_65" data-name="Path 65" d="M199.061,326.977c-.213,0-.593-19.39-.836-43.311s-.258-43.326,0-43.326.593,19.39.836,43.311S199.289,326.977,199.061,326.977Z" transform="translate(-144.405 -243.366)" fill="#e0e0e0"></path><path id="Path_66" data-name="Path 66" d="M205.813,326.977c-.213,0-.593-19.39-.836-43.311s-.274-43.326,0-43.326.593,19.39.836,43.311S206.026,326.977,205.813,326.977Z" transform="translate(-140.892 -243.366)" fill="#e0e0e0"></path><path id="Path_67" data-name="Path 67" d="M174.521,326.907c-.213,0-.593-19.4-.836-43.326s-.259-43.311,0-43.311.593,19.374.836,43.311S174.749,326.892,174.521,326.907Z" transform="translate(-157.184 -243.403)" fill="#e0e0e0"></path><path id="Path_68" data-name="Path 68" d="M181.563,326.827c-.213,0-.593-19.39-.836-43.311s-.274-43.311,0-43.326.593,19.39.836,43.326S181.776,326.827,181.563,326.827Z" transform="translate(-153.52 -243.444)" fill="#e0e0e0"></path><path id="Path_69" data-name="Path 69" d="M188.606,326.757c-.228,0-.608-19.39-.852-43.311s-.259-43.326,0-43.326.593,19.39.836,43.326S188.819,326.757,188.606,326.757Z" transform="translate(-149.857 -243.481)" fill="#e0e0e0"></path><path id="Path_70" data-name="Path 70" d="M195.631,326.667c-.213,0-.593-19.39-.836-43.311s-.259-43.326,0-43.326.593,19.39.836,43.311S195.859,326.667,195.631,326.667Z" transform="translate(-146.191 -243.528)" fill="#e0e0e0"></path><path id="Path_71" data-name="Path 71" d="M202.353,327.047c-.228,0-.593-19.39-.836-43.311s-.274-43.326,0-43.326.593,19.39.836,43.311S202.611,327.047,202.353,327.047Z" transform="translate(-142.694 -243.33)" fill="#e0e0e0"></path><path id="Path_72" data-name="Path 72" d="M209.718,326.547c-.228,0-.593-19.4-.852-43.326s-.259-43.311,0-43.311.593,19.374.852,43.311S209.931,326.532,209.718,326.547Z" transform="translate(-138.866 -243.59)" fill="#e0e0e0"></path><path id="Path_73" data-name="Path 73" d="M246.577,290.261c0,.213-19.4.593-43.311.821s-43.326.259-43.326,0,19.39-.593,43.311-.836S246.562,290.049,246.577,290.261Z" transform="translate(-164.244 -217.463)" fill="#e0e0e0"></path><path id="Path_74" data-name="Path 74" d="M246.867,293.863c0,.213-19.39.593-43.311.821s-43.326.259-43.326,0,19.39-.593,43.326-.836S246.867,293.635,246.867,293.863Z" transform="translate(-164.093 -215.59)" fill="#e0e0e0"></path><path id="Path_75" data-name="Path 75" d="M246.507,283.218c0,.228-19.4.593-43.311.836s-43.326.259-43.326,0,19.39-.593,43.311-.821S246.492,282.975,246.507,283.218Z" transform="translate(-164.28 -221.126)" fill="#e0e0e0"></path><path id="Path_76" data-name="Path 76" d="M246.437,276.187c0,.213-19.4.578-43.326.821s-43.311.259-43.311,0,19.39-.578,43.311-.821S246.422,275.989,246.437,276.187Z" transform="translate(-164.317 -224.785)" fill="#e0e0e0"></path><path id="Path_77" data-name="Path 77" d="M246.367,269.153c0,.213-19.4.593-43.326.821s-43.311.259-43.311,0,19.374-.593,43.311-.836S246.352,268.925,246.367,269.153Z" transform="translate(-164.353 -228.458)" fill="#e0e0e0"></path><path id="Path_78" data-name="Path 78" d="M246.3,262.1c0,.228-19.4.593-43.326.836s-43.311.243-43.311,0,19.374-.593,43.311-.821S246.282,261.891,246.3,262.1Z" transform="translate(-164.39 -232.115)" fill="#e0e0e0"></path><path id="Path_79" data-name="Path 79" d="M246.212,255.054c0,.228-19.39.593-43.311.836s-43.311.259-43.311,0,19.374-.578,43.311-.821S246.212,254.856,246.212,255.054Z" transform="translate(-164.426 -235.786)" fill="#e0e0e0"></path><path id="Path_80" data-name="Path 80" d="M246.147,248.067c0,.213-19.39.593-43.311.821s-43.311.259-43.326,0,19.39-.593,43.326-.836S246.147,247.809,246.147,248.067Z" transform="translate(-164.468 -239.444)" fill="#e0e0e0"></path><path id="Path_81" data-name="Path 81" d="M246.147,245.225c0,.213-19.39.593-43.311.821s-43.311.259-43.326,0,19.39-.593,43.326-.836S246.147,244.982,246.147,245.225Z" transform="translate(-164.468 -240.921)" fill="#e0e0e0"></path><path id="Path_82" data-name="Path 82" d="M246.147,251.624c0,.228-19.39.593-43.311.836s-43.311.259-43.326,0,19.39-.593,43.326-.821S246.147,251.411,246.147,251.624Z" transform="translate(-164.468 -237.572)" fill="#e0e0e0"></path><path id="Path_83" data-name="Path 83" d="M246.147,258.606c0,.228-19.39.593-43.311.836s-43.311.259-43.326,0,19.39-.578,43.326-.821S246.147,258.393,246.147,258.606Z" transform="translate(-164.468 -233.939)" fill="#e0e0e0"></path><path id="Path_84" data-name="Path 84" d="M246.147,265.586c0,.228-19.39.593-43.311.836s-43.311.259-43.326,0,19.39-.578,43.326-.821S246.147,265.373,246.147,265.586Z" transform="translate(-164.468 -230.305)" fill="#e0e0e0"></path><path id="Path_85" data-name="Path 85" d="M246.147,272.581c0,.213-19.39.578-43.311.821s-43.311.259-43.326,0,19.39-.578,43.326-.821S246.147,272.352,246.147,272.581Z" transform="translate(-164.468 -226.669)" fill="#e0e0e0"></path><path id="Path_86" data-name="Path 86" d="M246.147,279.563c0,.213-19.39.578-43.311.821s-43.311.259-43.326,0,19.39-.593,43.326-.836S246.147,279.335,246.147,279.563Z" transform="translate(-164.468 -223.037)" fill="#e0e0e0"></path><path id="Path_87" data-name="Path 87" d="M246.147,286.543c0,.213-19.39.578-43.311.821s-43.311.259-43.326,0,19.39-.593,43.326-.836S246.147,286.315,246.147,286.543Z" transform="translate(-164.468 -219.402)" fill="#e0e0e0"></path><path id="Path_88" data-name="Path 88" d="M227.965,242.33a3.878,3.878,0,1,1-6.661,0h-4.486a3.923,3.923,0,0,1,.547,1.962,3.878,3.878,0,1,1-7.208-1.962h-4.562a3.772,3.772,0,0,1,.547,1.962,3.878,3.878,0,1,1-7.208-1.962h-4.486a3.772,3.772,0,0,1,.547,1.962,3.878,3.878,0,1,1-7.741,0,3.772,3.772,0,0,1,.547-1.962h-4.486a3.878,3.878,0,1,1-7.208,1.962,3.771,3.771,0,0,1,.547-1.962h-4.41a3.878,3.878,0,1,1-6.661,0H162.77v80.1h66.67v-80.1Z" transform="translate(-162.77 -242.33)" fill="none"></path></g><path id="Path_90" data-name="Path 90" d="M181.68,251.83a9.581,9.581,0,0,0,3.513,6.083,6.265,6.265,0,1,0,2.3-11.3" transform="translate(-152.923 -173.329)" fill="#e0e0e0"></path><path id="Path_91" data-name="Path 91" d="M181.6,251.739a4.988,4.988,0,1,0,4.714-5.247,4.988,4.988,0,0,0-4.714,5.247Z" transform="translate(-152.967 -173.329)" fill="#2274e5"></path><path id="Path_92" data-name="Path 92" d="M179.721,249.81a3.042,3.042,0,1,0,2.829-3.148A3.041,3.041,0,0,0,179.721,249.81Z" transform="translate(-153.944 -173.241)" fill="#2274e5"></path><path id="Path_93" data-name="Path 93" d="M181.551,252.378c0-.122.471-.076,1.08-.3a2.92,2.92,0,0,0,1.7-1.658,3.041,3.041,0,0,0-.228-2.388c-.3-.578-.654-.867-.593-.958s.547,0,1.049.639a3.163,3.163,0,0,1,.517,3.041,3.041,3.041,0,0,1-2.312,1.931C181.976,252.727,181.52,252.454,181.551,252.378Z" transform="translate(-152.991 -173.04)" fill="#263238"></path><path id="Path_94" data-name="Path 94" d="M183.205,247.686c.106-.2.852,0,1.688-.167s1.414-.715,1.6-.593-.228,1.08-1.414,1.353S183.068,247.854,183.205,247.686Z" transform="translate(-152.136 -173.109)" fill="#263238"></path><path id="Path_95" data-name="Path 95" d="M184.705,253.412c-.213,0-.426-.928-1.2-1.658s-1.734-.9-1.734-1.11,1.2-.441,2.266.532S184.933,253.457,184.705,253.412Z" transform="translate(-152.876 -171.261)" fill="#263238"></path><path id="Path_96" data-name="Path 96" d="M217.974,261.265c0,.213-10.645.4-23.754.4s-23.769-.182-23.769-.4,10.645-.4,23.769-.4S217.974,261.068,217.974,261.265Z" transform="translate(-158.771 -165.838)" fill="#263238"></path><path id="Path_97" data-name="Path 97" d="M217.974,264.515c0,.213-10.645.4-23.754.4s-23.769-.182-23.769-.4,10.645-.4,23.769-.4S217.974,264.287,217.974,264.515Z" transform="translate(-158.771 -164.146)" fill="#263238"></path><path id="Path_98" data-name="Path 98" d="M217.974,267.765c0,.213-10.645.4-23.754.4s-23.769-.182-23.769-.4,10.645-.4,23.769-.4S217.974,267.537,217.974,267.765Z" transform="translate(-158.771 -162.453)" fill="#263238"></path><path id="Path_99" data-name="Path 99" d="M217.974,271.005c0,.228-10.645.4-23.754.4s-23.769-.167-23.769-.4,10.645-.4,23.769-.4S217.974,270.793,217.974,271.005Z" transform="translate(-158.771 -160.766)" fill="#263238"></path><path id="Path_100" data-name="Path 100" d="M217.974,274.255c0,.228-10.645.4-23.754.4s-23.769-.167-23.769-.4,10.645-.4,23.769-.4S217.974,274.073,217.974,274.255Z" transform="translate(-158.771 -159.074)" fill="#263238"></path><path id="Path_101" data-name="Path 101" d="M217.974,277.505c0,.213-10.645.4-23.754.4s-23.769-.182-23.769-.4,10.645-.4,23.769-.4S217.974,277.293,217.974,277.505Z" transform="translate(-158.771 -157.381)" fill="#263238"></path><path id="Path_102" data-name="Path 102" d="M217.974,280.755c0,.213-10.645.4-23.754.4s-23.769-.182-23.769-.4,10.645-.4,23.769-.4S217.974,280.527,217.974,280.755Z" transform="translate(-158.771 -155.689)" fill="#263238"></path></g><g id="Character--inject-1" transform="translate(317.232 140.884)"><path id="Path_112" data-name="Path 112" d="M244.531,447.21c-.5.107-2.646,2.281.411,5.733s21.488,12.9,24.879,7.254-4.79-9.566-4.79-9.566Z" transform="translate(-230.563 21.8)" fill="#ffbe9d"></path><path id="Path_113" data-name="Path 113" d="M269.144,462.594s19.009-2.1,26.765-1.11c8.41,1.08,17.337-3.163,22.629-8.972a30.414,30.414,0,0,0,6.676-13.443l12.166-8.455s1.308-28.757-17.869-24.119l-22.4.791s-44.1,7.3-50.915,12.79c0,0-8.3,8.075-10.721,11.193-.912,1.186-1.688,13.033,6.737,17.078,0,0-4.973,6.342-.593,9.931l2.053,1.521s-2.844,6.342-.167,8.151,23.83,8.227,29.837,4.045-.958-9-4.136-9.429" transform="translate(-234.935 0.333)" fill="#ffbe9d"></path><path id="Path_114" data-name="Path 114" d="M242.5,433.1a19.149,19.149,0,0,1,2.479.274c1.6.2,3.908.487,6.783.7,1.43.091,3.042.182,4.684.213s3.483,0,5.414.137a11.132,11.132,0,0,1,5.824,1.84,6.448,6.448,0,0,1,2.844,5.855,4.973,4.973,0,0,1-1.7,3.042,8.548,8.548,0,0,1-2.874,1.6,25.958,25.958,0,0,1-5.946,1.11,53.619,53.619,0,0,1-10.174-.2c-2.874-.3-5.171-.684-6.752-.958a13.688,13.688,0,0,1-2.464-.517,17.4,17.4,0,0,1,2.494.213c1.612.182,3.924.471,6.783.7a57.678,57.678,0,0,0,10.037,0,26.046,26.046,0,0,0,5.764-1.11,8.167,8.167,0,0,0,2.616-1.445,4.257,4.257,0,0,0,1.43-2.54,5.7,5.7,0,0,0-2.509-5.125,10.767,10.767,0,0,0-5.429-1.749c-1.855-.167-3.68-.106-5.368-.2s-3.285-.167-4.73-.319c-2.874-.274-5.171-.639-6.767-.943a12.165,12.165,0,0,1-2.433-.578Z" transform="translate(-231.98 14.452)" fill="#eb996e"></path><path id="Path_115" data-name="Path 115" d="M241.21,424.07a16.025,16.025,0,0,1,2.479.274c1.521.213,3.893.517,6.737.76s6.25.441,10.037.441a13.444,13.444,0,0,1,6.007.9,4.791,4.791,0,0,1,2.281,2.448,6.19,6.19,0,0,1,.319,3.406,8.182,8.182,0,0,1-3.848,5.277,13.2,13.2,0,0,1-5.779,1.871,57.361,57.361,0,0,1-10.113-.471l-6.752-.684a14.412,14.412,0,0,1-2.479-.365,16.356,16.356,0,0,1,2.494,0l6.783.441a63.123,63.123,0,0,0,9.991.289,12.56,12.56,0,0,0,5.444-1.81,7.376,7.376,0,0,0,3.467-4.745,4.562,4.562,0,0,0-2.175-5.034,12.744,12.744,0,0,0-5.642-.852,89.977,89.977,0,0,1-10.083-.608c-2.859-.319-5.155-.715-6.737-1.019a14.129,14.129,0,0,1-2.433-.517Z" transform="translate(-232.246 9.75)" fill="#eb996e"></path><path id="Path_116" data-name="Path 116" d="M248.493,427.559a24.911,24.911,0,0,1-1.718-3.513,21.67,21.67,0,0,1-1.825-3.452c.152-.152,1.521,1.095,2.524,3.042a6.554,6.554,0,0,1,1.019,3.923Z" transform="translate(-229.72 7.934)" fill="#eb996e"></path><path id="Path_117" data-name="Path 117" d="M309.867,411.027l-17.975-2.388S241.1,398.283,240.6,399.621s-3.041,1.81-1.125,7.254,31.191,10.265,32.5,12,2.251,11.816,13.687,16.455S304.3,438.37,304.3,438.37" transform="translate(-232.94 -3.044)" fill="#ffbe9d"></path><path id="Path_118" data-name="Path 118" d="M304.487,438.518l-.38.106-1.171.167a27.373,27.373,0,0,1-4.562,0,39.718,39.718,0,0,1-7.041-1.247,38.791,38.791,0,0,1-8.836-3.437,20.53,20.53,0,0,1-7.923-8.273,46.38,46.38,0,0,1-2.433-5.916,5.487,5.487,0,0,0-.335-.669,1.613,1.613,0,0,0-.532-.335,15.47,15.47,0,0,0-1.521-.532c-1.065-.335-2.159-.623-3.285-.912-4.471-1.171-9.2-2.3-14.037-3.711-2.418-.715-4.866-1.521-7.3-2.479a24.334,24.334,0,0,1-3.574-1.764,8.637,8.637,0,0,1-1.642-1.293,3.666,3.666,0,0,1-.624-.928c-.167-.35-.213-.669-.335-.988a7.391,7.391,0,0,1-.243-4.152,4.881,4.881,0,0,1,1.095-1.794,3.4,3.4,0,0,0,.5-.7l.122-.2a.532.532,0,0,1,.289-.183,1.712,1.712,0,0,1,.335,0h.532c2.646.167,5.155.608,7.6,1,4.973.821,9.748,1.7,14.3,2.57,9.125,1.719,17.245,3.361,24.1,4.775,1.7.335,3.346.73,4.882.988l4.41.608,7.041,1,4.456.669,1.156.2.4.091a1.2,1.2,0,0,1-.411,0l-1.156-.107-4.486-.532-7.071-.867-4.425-.563c-1.521-.243-3.178-.608-4.9-.928l-24.134-4.562c-4.562-.836-9.322-1.718-14.28-2.524-2.479-.38-5.034-.821-7.6-.988h-.608a.26.26,0,0,0-.076-.182h0c.593.213.152,0,.289.137h0a3.118,3.118,0,0,1-.624.9,4.213,4.213,0,0,0-.943,1.521,6.691,6.691,0,0,0,.259,3.68,3.421,3.421,0,0,0,.791,1.612,8,8,0,0,0,1.521,1.156,25.086,25.086,0,0,0,3.452,1.7c2.388.973,4.806,1.749,7.224,2.464,4.806,1.43,9.52,2.555,13.991,3.741,1.125.3,2.236.608,3.315.943a12.755,12.755,0,0,1,1.612.578,1.9,1.9,0,0,1,.821.578,3.666,3.666,0,0,1,.411.806,45.88,45.88,0,0,0,2.388,5.87,19.861,19.861,0,0,0,7.6,8.09,38.9,38.9,0,0,0,8.668,3.5,39.981,39.981,0,0,0,6.95,1.353,30.724,30.724,0,0,0,4.471.152h1.171Z" transform="translate(-233.065 -3.162)" fill="#eb996e"></path><path id="Path_119" data-name="Path 119" d="M260.023,442.633a5.854,5.854,0,0,1,1.871.091,17.959,17.959,0,0,1,4.9,1.445,16.12,16.12,0,0,1,3.042,1.825,5.414,5.414,0,0,1,2.251,3.528,4.364,4.364,0,0,1-2.251,4.015,8.44,8.44,0,0,1-4.836,1,90.69,90.69,0,0,1-16.591-2.448,42.8,42.8,0,0,1-4.866-1.521,8.611,8.611,0,0,1-1.718-.745,8.718,8.718,0,0,1,1.81.441c1.156.335,2.813.791,4.9,1.247a107.633,107.633,0,0,0,16.5,2.205,7.786,7.786,0,0,0,4.395-.867,3.634,3.634,0,0,0,1.931-3.3,4.761,4.761,0,0,0-1.931-3.042,15.211,15.211,0,0,0-2.9-1.825A26.554,26.554,0,0,0,260.023,442.633Z" transform="translate(-231.35 19.398)" fill="#eb996e"></path><path id="Path_120" data-name="Path 120" d="M369.491,433.278s22.522-37.076,27.586-61.545S428.3,308.44,436.8,298.312,479,276.382,479,276.382l12.44-6.722,96.4-8.471s64.13,6.752,83.55,24.469,34.582,58.23,34.582,78.471,19.6,195.63,19.6,195.63l-237.557-.3,5.323-86.47s-28.7-19.4-36.285-36.285-3.376-8.44-3.376-8.44-26.933,57.256-36.209,64.008S300.3,532.127,300.3,532.127L285.53,475.51Z" transform="translate(-208.588 -75.07)" fill="#2274e5"></path><path id="Path_121" data-name="Path 121" d="M578.073,282.427c-2.6.806-34.78,83.915-37.045,91.473s0,55.188,0,55.188l10.645,19.663s-3.042,14.356-.76,21.169l-47.63,9.125s-12.09-8.319-23.435,0L423.58,483.8s16.5.182,11.588,25.488c-4.806,24.788-8.471,30.233-8.471,30.233l197.47-4.562s21.944-1.095,18.6-43.281-12.759-158.554-12.759-158.554S615.621,270.778,578.073,282.427Z" transform="translate(-136.698 -64.766)" fill="#2274e5"></path><path id="Path_122" data-name="Path 122" d="M504.6,411.072a4.378,4.378,0,0,1-.471-1.019l-1.2-3.042c-.517-1.293-1.141-2.889-1.749-4.79s-1.414-4.015-2.053-6.433-1.521-5.049-2.114-7.923-1.308-5.946-1.916-9.124a168.063,168.063,0,0,1-2.327-21.427,172.439,172.439,0,0,1,.654-21.549c.4-3.285.715-6.418,1.247-9.322.243-1.521.441-2.859.715-4.212s.547-2.616.806-3.848c.487-2.448,1.11-4.562,1.612-6.57s.973-3.559,1.414-4.9.745-2.281.989-3.041a11.043,11.043,0,0,1,.4-1.065,4.56,4.56,0,0,1-.243,1.11c-.213.776-.5,1.81-.852,3.041s-.852,3.042-1.277,4.927-1.049,4.106-1.521,6.57c-.243,1.232-.487,2.509-.745,3.847s-.441,2.737-.669,4.182c-.5,2.9-.806,6.083-1.171,9.307a161.57,161.57,0,0,0,1.658,42.764c.593,3.254,1.141,6.342,1.84,9.124s1.354,5.505,2.007,7.923,1.369,4.562,1.947,6.448,1.141,3.513,1.612,4.821l1.065,3.042a9.129,9.129,0,0,1,.35,1.156Z" transform="translate(-100.713 -53.396)" fill="#263238"></path><path id="Path_123" data-name="Path 123" d="M566.4,447.6a5.933,5.933,0,0,1-.517-.578l-1.308-1.749c-.563-.776-1.262-1.7-2.114-2.737s-1.779-2.266-2.92-3.528-2.342-2.677-3.741-4.091-2.92-2.92-4.562-4.456a112.815,112.815,0,0,0-11.375-9.125,114.041,114.041,0,0,0-12.531-7.421c-2.023-.973-3.924-1.931-5.779-2.677s-3.559-1.521-5.14-2.053-3.041-1.049-4.334-1.521-2.388-.76-3.3-1l-2.1-.624a2.752,2.752,0,0,1-.73-.274,3.373,3.373,0,0,1,.76.122l2.144.471c.928.213,2.053.487,3.361.882s2.783.791,4.38,1.4,3.376,1.171,5.216,1.962,3.8,1.673,5.84,2.631a105.21,105.21,0,0,1,12.668,7.421,108.388,108.388,0,0,1,11.406,9.216c1.627,1.521,3.178,3.042,4.562,4.562s2.6,2.874,3.7,4.182,2.007,2.555,2.844,3.619a31.369,31.369,0,0,1,2.007,2.829c.487.791.882,1.338,1.2,1.84A3.135,3.135,0,0,1,566.4,447.6Z" transform="translate(-93.804 0.215)" fill="#263238"></path><path id="Path_124" data-name="Path 124" d="M571.175,431.708c-.122.106-1.87-1.886-5.155-4.562a52.242,52.242,0,0,0-6.083-4.258,57.92,57.92,0,0,0-8.2-3.969,57.251,57.251,0,0,0-8.76-2.464,52.78,52.78,0,0,0-7.391-.867c-4.243-.167-6.874.152-6.889,0a8.179,8.179,0,0,1,1.84-.3,18.772,18.772,0,0,1,2.175-.2,26.057,26.057,0,0,1,2.889,0,48.408,48.408,0,0,1,7.513.715,52.665,52.665,0,0,1,8.9,2.448,52.105,52.105,0,0,1,8.3,4.076,48.021,48.021,0,0,1,6.083,4.441,27.986,27.986,0,0,1,2.114,1.977,17.091,17.091,0,0,1,1.521,1.521,8.519,8.519,0,0,1,1.141,1.445Z" transform="translate(-81.956 5.047)" fill="#263238"></path><path id="Path_125" data-name="Path 125" d="M561.685,410.94c-.091.137-2.418-1.718-6.676-3.817a34.56,34.56,0,0,0-3.559-1.521c-1.277-.547-2.707-.958-4.2-1.429a48.147,48.147,0,0,0-20.18-1.384c-1.521.259-3.042.471-4.349.836a36.068,36.068,0,0,0-3.741,1.065c-4.562,1.521-7.056,3.042-7.132,2.859a9.927,9.927,0,0,1,1.779-1.08,17.9,17.9,0,0,1,2.175-1.095,31.218,31.218,0,0,1,3.042-1.217A32.406,32.406,0,0,1,522.6,403a42.3,42.3,0,0,1,4.41-.943,46.353,46.353,0,0,1,20.484,1.414,37.142,37.142,0,0,1,4.243,1.521,31.5,31.5,0,0,1,3.574,1.658,29.822,29.822,0,0,1,2.8,1.627,16.143,16.143,0,0,1,2.007,1.369,8.8,8.8,0,0,1,1.567,1.293Z" transform="translate(-90.731 -1.999)" fill="#263238"></path><path id="Path_126" data-name="Path 126" d="M473.6,467.328a71.081,71.081,0,0,0,1.4-8.455,54.627,54.627,0,0,0-.076-9.292,74.151,74.151,0,0,0-1.977-11.208,78.587,78.587,0,0,0-3.787-10.645,58.781,58.781,0,0,0-4.562-8.121,77.552,77.552,0,0,0-5.368-6.706,14.55,14.55,0,0,1,1.749,1.521,19.4,19.4,0,0,1,1.855,2.007l1.095,1.293c.38.487.73,1,1.125,1.521a52.683,52.683,0,0,1,4.714,8.136,65.757,65.757,0,0,1,5.84,22.173,51.438,51.438,0,0,1-.091,9.4c-.076.669-.152,1.293-.213,1.9l-.335,1.673a17.393,17.393,0,0,1-.639,2.646A14.487,14.487,0,0,1,473.6,467.328Z" transform="translate(-118.133 3.933)" fill="#263238"></path><path id="Path_127" data-name="Path 127" d="M451.3,470.4a1.521,1.521,0,0,1-.091-.441,9.745,9.745,0,0,0-.213-1.293c-.167-1.2-.411-2.874-.715-5-.624-4.349-1.43-10.645-2.372-18.462-1.871-15.588-4.106-37.182-5.855-61.089s-2.661-45.623-3.042-61.3c-.213-7.847-.319-14.2-.35-18.6v-6.372a.228.228,0,1,1,.091,0v1.323c0,1.2.091,2.889.167,5.049.137,4.441.335,10.782.578,18.584.563,15.694,1.521,37.365,3.3,61.271s3.893,45.471,5.627,61.073c.882,7.756,1.612,14.052,2.114,18.477.243,2.144.426,3.817.563,5.034a11.6,11.6,0,0,0,.137,1.308,2.424,2.424,0,0,1,.061.441Z" transform="translate(-128.939 -56.217)" fill="#263238"></path><path id="Path_128" data-name="Path 128" d="M405.5,391.684a17.358,17.358,0,0,1-1.034-2.327c-.608-1.521-1.521-3.7-2.661-6.387-2.281-5.368-5.688-12.683-9.763-20.621s-7.756-14.979-10.508-20.272c-1.323-2.616-2.388-4.73-3.041-6.2a16.6,16.6,0,0,1-1.019-2.342,14.1,14.1,0,0,1,1.293,2.19l3.3,6.083c2.768,5.14,6.661,12.166,10.737,20.18s7.406,15.314,9.566,20.758c1.08,2.722,1.916,4.942,2.433,6.494A16.13,16.13,0,0,1,405.5,391.684Z" transform="translate(-160.71 -37.399)" fill="#263238"></path><path id="Path_129" data-name="Path 129" d="M398.736,358.649a4.653,4.653,0,0,1-1.384-.259c-.867-.213-2.114-.578-3.65-1.08a90.073,90.073,0,0,1-22.477-11.132c-1.323-.912-2.372-1.688-3.042-2.251A5.416,5.416,0,0,1,367.15,343a49.619,49.619,0,0,1,4.425,2.707,119.247,119.247,0,0,0,10.889,6.083c4.38,2.144,8.455,3.832,11.451,4.958a51.465,51.465,0,0,1,4.821,1.9Z" transform="translate(-166.084 -32.467)" fill="#263238"></path><path id="Path_130" data-name="Path 130" d="M389.857,393.2a8.2,8.2,0,0,1-1.642-.988c-1-.684-2.494-1.658-4.365-2.783a89.939,89.939,0,0,0-31.8-11.907c-2.159-.38-3.908-.624-5.125-.776a8.363,8.363,0,0,1-1.886-.319,8.426,8.426,0,0,1,1.916,0,42.213,42.213,0,0,1,5.186.517A79.922,79.922,0,0,1,368.87,381.2a80.857,80.857,0,0,1,15.36,7.725c1.84,1.217,3.285,2.251,4.243,3.042a10.417,10.417,0,0,1,1.384,1.232Z" transform="translate(-177.598 -15.088)" fill="#263238"></path><path id="Path_131" data-name="Path 131" d="M505.538,261.28a12.274,12.274,0,0,1-.091,1.232c-.106.882-.243,2.053-.411,3.528-.4,3.042-.943,7.482-1.871,12.926a163.795,163.795,0,0,1-4.258,18.918,88.21,88.21,0,0,1-9.535,21.716,66.582,66.582,0,0,1-7.923,10.159l-.3.335-.289-.38a40.225,40.225,0,0,0-14.432-11.968,38.353,38.353,0,0,0-7.6-2.8,33.649,33.649,0,0,0-6.919-.928,28.544,28.544,0,0,0-9.854,1.384c-2.205.776-3.376,1.353-3.406,1.277a5.467,5.467,0,0,1,.836-.441,20.606,20.606,0,0,1,2.479-1.095,27.615,27.615,0,0,1,9.961-1.627,33.59,33.59,0,0,1,7.056.852,38.765,38.765,0,0,1,7.756,2.768A40.529,40.529,0,0,1,481.48,329.3h-.593a67.639,67.639,0,0,0,7.817-10.037,89.593,89.593,0,0,0,9.535-21.5,178.489,178.489,0,0,0,4.41-18.8c1-5.414,1.627-9.839,2.114-12.881.228-1.521.426-2.631.563-3.5a5.413,5.413,0,0,1,.213-1.308Z" transform="translate(-128.855 -75.023)" fill="#263238"></path><path id="Path_132" data-name="Path 132" d="M511.663,268.56l-14.645-19.42-15.922.5L429.36,276.97Z" transform="translate(-133.688 -81.345)" fill="#2274e5"></path><path id="Path_133" data-name="Path 133" d="M450.988,311.932a3.5,3.5,0,0,1-.836,0,18.536,18.536,0,0,1-2.388-.4,29.64,29.64,0,0,1-8.166-3.5,17.916,17.916,0,0,0-5.551-2.3,16.349,16.349,0,0,0-6.874,0,16.074,16.074,0,0,0-11.482,9.991l-.821,2.22v-4.228c.182-11.984.2-22.811.684-30.7.228-3.923.532-7.1.867-9.277.137-1.095.3-1.931.426-2.494a5.236,5.236,0,0,1,.213-.852c.076,0-.137,1.2-.335,3.391s-.456,5.338-.608,9.261c-.35,7.847-.259,18.69-.456,30.689v1.871l-.76-.152a16.728,16.728,0,0,1,12.075-10.417,17.063,17.063,0,0,1,12.835,2.54,32.13,32.13,0,0,0,7.969,3.68C449.832,311.78,451,311.856,450.988,311.932Z" transform="translate(-141.234 -70.274)" fill="#263238"></path><path id="Path_134" data-name="Path 134" d="M515.229,208.053V324.695a28.286,28.286,0,0,1-6.646,18.249h0a85.848,85.848,0,0,1-23.42,19.39l-23.511,13.246-19.466-17.428a28.332,28.332,0,0,1-9.414-20c-.335-8.486-.335-17.048-.335-17.048s-32.955-2.372-36.057-34.871c-1.521-15.3-1.916-46.641-1.992-75.536a63.233,63.233,0,0,1,58.017-63.157l.928-.076a60.435,60.435,0,0,1,61.895,60.587Z" transform="translate(-151.899 -134.301)" fill="#ffbe9d"></path><path id="Path_135" data-name="Path 135" d="M419.35,266.653s20.7,0,41.425-15.573c0,0-8.09,24.241-40.8,24Z" transform="translate(-138.901 -80.335)" fill="#eb996e"></path><path id="Path_136" data-name="Path 136" d="M401.59,204.954a4.669,4.669,0,0,0,4.866,4.319,4.456,4.456,0,0,0,4.441-4.562,4.653,4.653,0,0,0-4.851-4.319,4.456,4.456,0,0,0-4.456,4.562Z" transform="translate(-148.15 -106.733)" fill="#263238"></path><path id="Path_137" data-name="Path 137" d="M399.882,199.6c.624.547,3.924-2.342,8.927-2.737s8.881,1.794,9.368,1.141c.243-.3-.426-1.338-2.129-2.372a12.729,12.729,0,0,0-7.6-1.658,12.166,12.166,0,0,0-7.041,2.935C400,198.213,399.578,199.338,399.882,199.6Z" transform="translate(-149.087 -110.106)" fill="#263238"></path><path id="Path_138" data-name="Path 138" d="M432.87,203.624a4.669,4.669,0,0,0,4.866,4.319,4.471,4.471,0,0,0,4.456-4.562,4.669,4.669,0,0,0-4.866-4.319,4.471,4.471,0,0,0-4.456,4.562Z" transform="translate(-131.86 -107.426)" fill="#263238"></path><path id="Path_139" data-name="Path 139" d="M432.256,197.54c.624.547,3.939-2.342,8.927-2.737s8.881,1.794,9.368,1.125c.243-.289-.426-1.338-2.129-2.357a12.835,12.835,0,0,0-7.6-1.673,12.257,12.257,0,0,0-7.041,2.935C432.378,196.141,431.921,197.282,432.256,197.54Z" transform="translate(-132.234 -111.182)" fill="#263238"></path><path id="Path_140" data-name="Path 140" d="M426.733,235.332c0-.289-3.148-.578-8.242-.806-1.277,0-2.509-.167-2.8-1.019a6.57,6.57,0,0,1,.532-3.863c.958-3.194,1.947-6.524,3.041-10.037,4.091-14.28,6.95-25.974,6.372-26.127s-4.365,11.284-8.455,25.549c-.988,3.528-1.931,6.874-2.813,10.083a7.346,7.346,0,0,0-.243,5.064,3.194,3.194,0,0,0,2.251,1.7,8.594,8.594,0,0,0,2.19.122C423.6,235.788,426.748,235.545,426.733,235.332Z" transform="translate(-141.797 -110.331)" fill="#263238"></path><path id="Path_141" data-name="Path 141" d="M437.253,222.431c-.821,0-.38,5.444-4.714,9.687S422.395,236.239,422.41,237c0,.335,1.384.943,3.832.806a13.52,13.52,0,0,0,8.471-3.771,11.74,11.74,0,0,0,3.6-8.09C438.332,223.663,437.618,222.37,437.253,222.431Z" transform="translate(-137.307 -95.255)" fill="#263238"></path><path id="Path_142" data-name="Path 142" d="M430.314,184.371c.608,1.323,5.551.259,11.466.487s10.813,1.43,11.482.137c.3-.608-.624-1.81-2.646-3.042a19.983,19.983,0,0,0-17.489-.471C431.044,182.592,430.055,183.748,430.314,184.371Z" transform="translate(-133.212 -117.509)" fill="#263238"></path><path id="Path_143" data-name="Path 143" d="M400.324,190.037c.973,1.065,4.319-.4,8.455-.791s7.71.122,8.425-1.125c.3-.608-.335-1.7-1.962-2.646a11.8,11.8,0,0,0-7.041-1.293,11.619,11.619,0,0,0-6.554,2.844C400.279,188.349,399.914,189.566,400.324,190.037Z" transform="translate(-148.891 -115.221)" fill="#263238"></path><path id="Path_144" data-name="Path 144" d="M448.68,173.143l.182.122a25.746,25.746,0,0,1,10.949,15.77l.137.654c2.038,9.125,2.6,18.629,4.729,27.784s1.734,16.15,10.9,18.249a12.166,12.166,0,0,0,12.759-5.186,7.816,7.816,0,0,0,.806-4.349c-.107-22.538,4.425-31.3,2.433-54.747a19.769,19.769,0,0,0-9.52-15.39c-5.2-3.118-11.5-6.266-16.728-3.239S453.881,166.634,450,171.318" transform="translate(-123.627 -132.148)" fill="#263238"></path><path id="Path_145" data-name="Path 145" d="M467.43,198.148c.547-.274,21.808-8.455,22.948,13.854s-21.5,18.827-21.564,18.249S467.43,198.148,467.43,198.148Z" transform="translate(-113.863 -108.778)" fill="#ffbe9d"></path><path id="Path_146" data-name="Path 146" d="M472.546,218.976c.091-.076.4.258,1.065.517a3.863,3.863,0,0,0,2.9-.091c2.312-.973,4.106-4.821,4.015-8.851a12.789,12.789,0,0,0-1.369-5.505,4.471,4.471,0,0,0-3.042-2.829,1.962,1.962,0,0,0-2.236,1.186c-.274.639-.106,1.065-.228,1.11s-.487-.35-.365-1.277a2.555,2.555,0,0,1,.806-1.445,3.042,3.042,0,0,1,2.129-.669,5.475,5.475,0,0,1,4.228,3.254,13.124,13.124,0,0,1,1.658,6.083c.091,4.562-1.992,8.82-5.171,9.915a4.152,4.152,0,0,1-3.589-.411C472.607,219.509,472.47,219.022,472.546,218.976Z" transform="translate(-111.208 -106.354)" fill="#eb996e"></path><path id="Path_147" data-name="Path 147" d="M504.06,162.826c4.745-9.353-11.314-20.9-22.583-23.45s-25.29,4-35.9,8.531c-6.707,2.859-13.307,6.615-20.591,6.9-4.882.213-9.672-1.171-14.4-2.418s-9.626-2.372-14.462-1.627-9.626,3.726-11.086,8.395,1.673,10.645,6.554,10.889c-6.433-2.874-14.979,2.3-15.39,9.337s7.421,13.2,14.158,11.147c-3.361-2.144-7.893,2.22-7.163,6.083s4.562,6.509,8.288,7.8c9.626,3.3,20.332,1.11,29.67-2.92s17.808-9.794,27.039-14.052,24.667-11.8,34.491-9.231c7.239,1.9,12.835,9.976,16.728,7.771a13.687,13.687,0,0,0,6.2-10.645,39.085,39.085,0,0,0-1.521-12.622" transform="translate(-161.382 -138.803)" fill="#263238"></path><path id="Path_148" data-name="Path 148" d="M384.513,167.512c.182-.122,1.277,1.521,3.893,3.954a30.735,30.735,0,0,0,13.018,6.919,28.271,28.271,0,0,0,21.138-2.6c7.284-4.015,13.2-11.345,20.12-18.34s15.284-12.561,24.013-14.082,17,.973,21.868,5.6a19.542,19.542,0,0,1,6.25,13.96,15.481,15.481,0,0,1-.624,4.182c-.335.9-.547,1.353-.624,1.323a34.7,34.7,0,0,0,.38-5.475,19.207,19.207,0,0,0-6.418-12.835c-4.562-4.106-12.379-6.311-20.469-4.76s-16.074,6.752-22.811,13.687-12.881,14.371-20.682,18.568a30.415,30.415,0,0,1-35.753-5.49,21.777,21.777,0,0,1-2.6-3.27C384.681,168,384.452,167.558,384.513,167.512Z" transform="translate(-157.047 -136.661)" fill="#455a64"></path><path id="Path_149" data-name="Path 149" d="M478.273,216.164c-.076.076-1.019-.532-2.007-2.236a14.964,14.964,0,0,1-1.764-7.969c-.106-7.208,5.6-15.42,5.581-25.381a22.447,22.447,0,0,0-3.559-13.078,17.154,17.154,0,0,0-8.866-6.463,14.507,14.507,0,0,0-7.513-.4c-1.764.441-2.676.928-2.783.76s.73-.852,2.54-1.521a14.052,14.052,0,0,1,8.182-.289,18.082,18.082,0,0,1,10.1,6.8,23.678,23.678,0,0,1,4.106,14.265,40.637,40.637,0,0,1-3.133,14.371,42.443,42.443,0,0,0-3.041,11.086C475.414,212.666,478.578,216.027,478.273,216.164Z" transform="translate(-119.11 -128.224)" fill="#455a64"></path><rect id="Rectangle_4" data-name="Rectangle 4" width="11.451" height="26.507" rx="2.14" transform="translate(366.075 95.736) rotate(42.82)" fill="#263238"></rect><path id="Path_150" data-name="Path 150" d="M635.241,332.17a6.632,6.632,0,0,0,.091.9c.091.593.107,1.521.2,2.616.167,2.327.4,5.748.715,10.189.608,8.942,1.521,22.005,2.6,38.566s2.388,36.62,3.908,59.537q.547,8.592,1.156,17.717c.228,3.042.35,6.083.487,9.277a44.649,44.649,0,0,1,0,4.73,45.971,45.971,0,0,1-.258,4.79l-.593,4.836c-.35,1.6-.7,3.209-1.034,4.821a46.64,46.64,0,0,1-1.521,4.76,24.8,24.8,0,0,1-2.1,4.562c-3.194,5.916-8.166,11.451-15.071,13.687H427.294l.137-.5c1.445-5.14,2.874-10.219,4.289-15.284q1.08-3.787,2.114-7.6a52.515,52.515,0,0,0,1.764-7.5,32.589,32.589,0,0,0-1.308-14.934,18.249,18.249,0,0,0-3.559-6.418,10.463,10.463,0,0,0-6.083-3.574l-3.118-.487,3.042-.259,56.192-4.714H480.6a19.192,19.192,0,0,1,12.166-3.726,24.333,24.333,0,0,1,11.725,3.741h-.258l47.645-8.972-.213.365a19.965,19.965,0,0,1-.821-5.612,45.738,45.738,0,0,1,.152-5.429,84.074,84.074,0,0,1,1.445-10.28v.182c-3.817-7.132-7.315-13.687-10.554-19.679v-.091c-.745-17.534-1.019-31.358-.882-40.787,0-4.714.228-8.334.471-10.767a18.4,18.4,0,0,1,.411-2.737c.137-.608.213-.912.213-.912a4.3,4.3,0,0,1-.152.928,20.2,20.2,0,0,0-.35,2.737c-.213,2.433-.35,6.083-.365,10.752,0,9.429.274,23.252,1.08,40.771v-.091c3.239,6.007,6.767,12.516,10.645,19.633h0V422a85.933,85.933,0,0,0-1.445,10.28,45.188,45.188,0,0,0-.137,5.384,19.589,19.589,0,0,0,.806,5.444l.091.3h-.3l-47.63,9.124h-.122l-.122-.076a23.5,23.5,0,0,0-11.375-3.589,18.371,18.371,0,0,0-11.664,3.6h-.182l-56.177,4.775v-.745a11.147,11.147,0,0,1,6.57,3.8A19.176,19.176,0,0,1,434.973,467a33.289,33.289,0,0,1,1.353,15.284,52.069,52.069,0,0,1-1.779,7.6q-1.049,3.771-2.114,7.6-2.129,7.6-4.273,15.208l-.38-.5h47.143L623.7,512.3h0a22.81,22.81,0,0,0,8.623-5.323,32.122,32.122,0,0,0,6.007-8.045c.806-1.521,1.384-3.041,2.068-4.562a40.276,40.276,0,0,0,1.521-4.7c.487-1.566.684-3.178,1.034-4.76s.4-3.209.593-4.79a45.375,45.375,0,0,0,.274-4.745,44.14,44.14,0,0,0,0-4.7c-.137-3.118-.243-6.19-.471-9.231q-.563-9.125-1.125-17.732c-1.521-22.918-2.722-42.992-3.771-59.568s-1.84-29.624-2.4-38.566c-.258-4.441-.471-7.878-.608-10.2,0-1.141-.106-2.007-.137-2.616S635.241,332.17,635.241,332.17Z" transform="translate(-137.765 -38.107)" fill="#263238"></path><path id="Path_151" data-name="Path 151" d="M549,277.68a29.093,29.093,0,0,1-2.707,1.688,63.328,63.328,0,0,0-7.041,5.049A82.605,82.605,0,0,0,521,306.224a180.143,180.143,0,0,0-12.166,25.853l-3.163,8.09-.882,2.205a3.206,3.206,0,0,1-.35.745,3.043,3.043,0,0,1,.2-.806c.2-.593.456-1.338.745-2.251.669-1.947,1.642-4.745,2.935-8.2a163,163,0,0,1,12-26.081,79.2,79.2,0,0,1,18.553-21.838,53.933,53.933,0,0,1,7.239-4.866c.882-.532,1.627-.852,2.1-1.095a3.789,3.789,0,0,1,.791-.3Z" transform="translate(-94.59 -66.483)" fill="#263238"></path><g id="Group_4" data-name="Group 4" transform="translate(364.672 269.153)" opacity="0.3"><path id="Path_152" data-name="Path 152" d="M504.946,315.912A100.949,100.949,0,0,0,496.43,361.4c.578,15.451,2.433,30.947.912,46.353s-6.859,31.115-18.34,41.471a14.919,14.919,0,0,0-3.711,4.121,4.182,4.182,0,0,0,.715,5.095,6.082,6.082,0,0,0,4.775.5c11-1.916,22.127-3.285,33.137-5.186,2.357-.411,10.28-1.962,10.28-1.962a43,43,0,0,1-.669-9.125c.35-2.753,1.429-12.166,1.429-12.166a16.177,16.177,0,0,0-2.114-3.923,89.954,89.954,0,0,1-9.124-23.4c-3.756-7.68-5.444-15.405-7.193-22.583-4.821-19.937-4.684-39.54-1.612-64.8" transform="translate(-474.732 -315.79)"></path></g><g id="Group_5" data-name="Group 5" transform="translate(274.123 235.593)" opacity="0.3"><path id="Path_153" data-name="Path 153" d="M415.4,304.7c.9,2.281,1.81,4.562,2.707,6.859a2.768,2.768,0,0,0,1.308,1.718c1.353.517,2.433-1.141,3.042-2.448a17.565,17.565,0,0,1,13.489-9.474c4.562-.532,9.368.806,13.915-.137a61.651,61.651,0,0,0-12.561-6.25,20.834,20.834,0,0,0-13.793-.137,12.728,12.728,0,0,0-8.319,10.387" transform="translate(-415.19 -293.722)"></path></g><g id="Group_6" data-name="Group 6" transform="translate(311.062 206.817)" opacity="0.3"><path id="Path_154" data-name="Path 154" d="M440.347,308.789a74.1,74.1,0,0,1,16.1,1.521,25.123,25.123,0,0,1,13.793,7.938c3.68,4.486,5.049,10.372,6.539,15.968.289,1.08.806,2.357,1.9,2.479a2.707,2.707,0,0,0,1.825-.715c9.124-6.691,15.116-16.926,18.4-27.723s4.045-22.173,4.228-33.457c-4.349,7.771-6.235,16.622-9.125,25.047s-7.1,16.911-14.554,21.777a7.269,7.269,0,0,0-1.7-5.338,15.938,15.938,0,0,0-4.425-3.619,42.277,42.277,0,0,0-33.852-4.152" transform="translate(-439.48 -274.8)"></path></g><path id="Path_155" data-name="Path 155" d="M463.161,419.663H444.532s-42.018-15.208-50.656-13.687c-7.786,1.308-36.27,20.226-41.851,23.982a3.513,3.513,0,0,0-1.353,1.719h0a6.083,6.083,0,0,0,3.406,7.756l.578.243-.243.852a10.082,10.082,0,0,0-.441,3.406,4.106,4.106,0,0,0,7.6,1.764l-1.065,1.916a4.562,4.562,0,0,0-.593,2.555l.091,1.719a4.684,4.684,0,0,0,3.224,4.2h0a4.669,4.669,0,0,0,4.867-1.353c3.619-3.969,11.421-11.923,16.728-12.8a123.376,123.376,0,0,1,17.245-.867,5.855,5.855,0,0,1,5.429,3.726h0c-3.133.228-24.971,11.619-32.7,15.694a8.227,8.227,0,0,0-4.486,6.22c-.289,2.418.928,4.942,5.718,3.832,10.265-2.4,28.742-10.889,28.742-10.889s9.52-2.722,15.694,1.627c8.684,6.083,12.668,8.379,20.12,5.9a63.178,63.178,0,0,0,12.957-6.083l14.691-1.521S482.156,424.986,463.161,419.663Z" transform="translate(-174.865 0.272)" fill="#ffbe9d"></path><path id="Path_156" data-name="Path 156" d="M403.93,420.219c0,.167-3.042-.776-7.893-1.095a40.726,40.726,0,0,0-33.958,14.493,78.568,78.568,0,0,0-4.669,6.463,9.278,9.278,0,0,1,.928-1.947,35.32,35.32,0,0,1,3.3-4.866,39.448,39.448,0,0,1,34.445-14.69,36.505,36.505,0,0,1,5.794.973,9.89,9.89,0,0,1,2.053.669Z" transform="translate(-171.156 6.803)" fill="#eb996e"></path><path id="Path_157" data-name="Path 157" d="M401.733,413.614a31.936,31.936,0,0,0-27.373,3.984A76.582,76.582,0,0,0,359,430.631l-4.228,4.441a10.843,10.843,0,0,1-1.612,1.521,14.655,14.655,0,0,1,1.384-1.794c.928-1.125,2.3-2.722,4.045-4.654a70.777,70.777,0,0,1,15.405-13.337,34.977,34.977,0,0,1,19.542-5.292,23.483,23.483,0,0,1,6.083,1.125,13.691,13.691,0,0,1,1.521.593Z" transform="translate(-173.369 3.204)" fill="#eb996e"></path></g><g id="speech-bubble--inject-1" transform="translate(724.938 134.808)"><path id="Path_158" data-name="Path 158" d="M565.915,135.11a62.168,62.168,0,0,0-51.006,97.739l-7.467,23.191,22.811-7.771A62.184,62.184,0,1,0,565.869,135.11Z" transform="translate(-502.667 -134.651)" fill="#fff"></path><path id="Path_159" data-name="Path 159" d="M537.516,177.571a5.368,5.368,0,1,1-5.2-5.52,5.368,5.368,0,0,1,5.2,5.52Z" transform="translate(-490.661 -115.416)" fill="#263238"></path><path id="Path_160" data-name="Path 160" d="M551.676,178a5.368,5.368,0,1,1-5.2-5.52,5.368,5.368,0,0,1,5.2,5.52Z" transform="translate(-483.288 -115.192)" fill="#263238"></path><path id="Path_161" data-name="Path 161" d="M565.527,175.738a5.353,5.353,0,1,1-3.173-2.6A5.368,5.368,0,0,1,565.527,175.738Z" transform="translate(-475.742 -114.967)" fill="#263238"></path><path id="Path_162" data-name="Path 162" d="M568.194,134.841a4.458,4.458,0,0,1,1.08,0l3.194.182a11.624,11.624,0,0,1,2.342.167l2.8.487,3.27.563,3.635,1.019a59.661,59.661,0,0,1,17.519,8.288,62.67,62.67,0,0,1,27.373,47.98,64.945,64.945,0,0,1,0,8.592c-.152,1.445-.167,2.92-.426,4.38s-.532,2.92-.791,4.41a63.282,63.282,0,0,1-6.585,17.306,67.629,67.629,0,0,1-11.892,15.36,66.049,66.049,0,0,1-16.8,11.33,60.007,60.007,0,0,1-20.226,5.551,39.542,39.542,0,0,1-5.368.289,49.5,49.5,0,0,1-5.414,0,65.388,65.388,0,0,1-10.782-1.688,63.508,63.508,0,0,1-21.29-9.733l.654.091-22.218,8.151-1.323.487.411-1.338,7.163-23.283.091.578a62.839,62.839,0,0,1-10.9-27.161,56.822,56.822,0,0,1-.441-13.778,44.327,44.327,0,0,1,.821-6.57l.593-3.209c.228-1.049.578-2.053.867-3.042A62.807,62.807,0,0,1,531.1,145.274a60.208,60.208,0,0,1,14.812-7.254l3.315-1.08,3.148-.7,2.874-.608c.912-.152,1.794-.228,2.631-.319,1.673-.167,3.133-.411,4.41-.426h5.2a2.54,2.54,0,0,1,.669,0,2.874,2.874,0,0,1-.669,0l-1.962.106-3.239.106a42.722,42.722,0,0,0-4.365.532,62.427,62.427,0,0,0-51.325,44.8c-.259,1-.608,2.007-.821,3.042s-.38,2.1-.578,3.148a44.923,44.923,0,0,0-.776,6.463,56.81,56.81,0,0,0,.487,13.489,61.939,61.939,0,0,0,10.767,26.6l.2.259-.106.319q-3.437,11.3-7.1,23.3l-.912-.867,22.218-8.166.35-.137.3.213a61.818,61.818,0,0,0,20.8,9.489,61.017,61.017,0,0,0,10.539,1.658,47.278,47.278,0,0,0,5.292.076,39.93,39.93,0,0,0,5.232-.289,58.517,58.517,0,0,0,19.77-5.4,64.862,64.862,0,0,0,16.47-11.056,65.952,65.952,0,0,0,11.664-15.01,61.609,61.609,0,0,0,6.417-16.926c.274-1.521.532-2.889.806-4.3s.274-2.889.426-4.3a65.417,65.417,0,0,0,.122-8.44A62.077,62.077,0,0,0,601.529,146.2a59.644,59.644,0,0,0-17.245-8.41l-3.589-1.065-3.224-.639-2.768-.532c-.852-.122-1.642-.167-2.327-.243l-3.163-.335A7.6,7.6,0,0,1,568.194,134.841Z" transform="translate(-503.03 -134.808)" fill="#263238"></path></g><g id="Device--inject-1" transform="translate(291.105 476.539)"><path id="Path_196" data-name="Path 196" d="M269.438,508.995,218.979,382.331a16.561,16.561,0,0,1,15.329-22.811H391.494a16.56,16.56,0,0,1,15.678,11.235L450.514,498.5l50.626.243c4.106,0,7.436,6.083,7.436,10.143h0l-55.72-.639Z" transform="translate(-217.755 -359.52)" fill="#263238"></path><path id="Path_197" data-name="Path 197" d="M259.038,378.755a17.579,17.579,0,0,0-10.159,2.722,13.23,13.23,0,0,0-2.768,2.3c-2.692,3.042-7.5,8.912-5.581,18.1s7.832,10.448,10.645,10.752,22.081-5.186,22.081-5.186,7-5.946,4.562-13.763C275.584,386.967,269.379,379.136,259.038,378.755Z" transform="translate(-206.123 -349.511)" fill="#2274e5"></path><path id="Path_198" data-name="Path 198" d="M246.49,401.9s.7,4.912,3.163,6.083,7.056,1.019,10.645.137,8.76-2.889,9.368-5.612a11.451,11.451,0,0,0-.3-6.4,16.044,16.044,0,0,0-12.957-1.2A17.124,17.124,0,0,0,246.49,401.9Z" transform="translate(-202.791 -341.529)" fill="#f5f5f5"></path><g id="Group_7" data-name="Group 7" transform="translate(41.13 29.924)" opacity="0.4"><path id="Path_199" data-name="Path 199" d="M263.018,386.2a9.246,9.246,0,1,1-11.223-6.722A9.246,9.246,0,0,1,263.018,386.2Z" transform="translate(-244.801 -379.197)" fill="#fff"></path></g><g id="Group_8" data-name="Group 8" transform="translate(34.077 41.79)" opacity="0.4"><path id="Path_200" data-name="Path 200" d="M242.09,402.208a11.862,11.862,0,0,0,2.631-7.847,11.558,11.558,0,0,0-3.437-7.36,22.69,22.69,0,0,0-1,9.353,16.9,16.9,0,0,0,1.81,5.855Z" transform="translate(-240.163 -387)" fill="#fff"></path></g><g id="Group_9" data-name="Group 9" transform="translate(65.073 34.536)" opacity="0.4"><path id="Path_201" data-name="Path 201" d="M267.624,395.643a11.755,11.755,0,0,1-6.007-5.672,10.447,10.447,0,0,1-.593-7.741,25.687,25.687,0,0,1,5.247,7.376C268.065,393.849,267.624,395.643,267.624,395.643Z" transform="translate(-260.545 -382.23)" fill="#fff"></path></g><path id="Path_202" data-name="Path 202" d="M306.519,415.584a10.219,10.219,0,1,1-10.219-10.2,10.219,10.219,0,0,1,10.219,10.2Z" transform="translate(-182.174 -335.638)" fill="#f5f5f5"></path></g><g id="Desk--inject-1" transform="translate(82.055 624.873)"><path id="Path_203" data-name="Path 203" d="M1014.032,457.455c0,.213-209.043.4-466.871.4s-466.871-.182-466.871-.4,209-.4,466.871-.4S1014.032,457.227,1014.032,457.455Z" transform="translate(-80.29 -457.06)" fill="#263238"></path></g><g id="Plant--inject-1" transform="translate(191.183 471.93)"><path id="Path_204" data-name="Path 204" d="M179.692,455.692c-14.873-8.623-22.811-28.681-23.42-45.106s6.235-33.533,19.77-42.946c14.173-9.915,34.369-9.733,48.938-.411s23.115,26.948,22.446,44.239-10.083,33.791-24.013,44.1" transform="translate(-149.869 -354.546)" fill="#2274e5"></path><path id="Path_205" data-name="Path 205" d="M188.725,456.693a19.116,19.116,0,0,1-.274-3.756c-.076-2.692-.182-6.083-.289-10.235-.228-8.653-.563-20.591-1.141-33.761s-1.293-25.108-1.84-33.73c-.243-4.121-.441-7.6-.608-10.235a18.252,18.252,0,0,1,0-3.756,19.419,19.419,0,0,1,.593,3.711c.289,2.4.654,5.885,1.049,10.2.791,8.607,1.658,20.545,2.236,33.746s.76,25.153.73,33.806c0,4.319,0,7.832-.152,10.25a20.125,20.125,0,0,1-.3,3.756Z" transform="translate(-135.163 -354.026)" fill="#fff"></path><path id="Path_206" data-name="Path 206" d="M162.738,391.309c0,.38-2.4.5-5.292.258s-5.216-.745-5.186-1.125,2.4-.5,5.292-.259S162.769,390.928,162.738,391.309Z" transform="translate(-151.939 -339.008)" fill="#263238"></path><path id="Path_207" data-name="Path 207" d="M162.625,382.527c-.167.35-2.205-.213-4.562-1.262s-4.152-2.19-4-2.54,2.205.213,4.562,1.262S162.777,382.239,162.625,382.527Z" transform="translate(-151.005 -344.964)" fill="#263238"></path><path id="Path_208" data-name="Path 208" d="M167.592,376.415c-.2.319-2.494-.76-4.9-2.737s-3.878-4.045-3.6-4.289,2.175,1.293,4.562,3.209S167.805,376.1,167.592,376.415Z" transform="translate(-148.399 -349.785)" fill="#263238"></path><path id="Path_209" data-name="Path 209" d="M170.963,370.051c-.35.152-1.521-1.521-2.464-3.848s-1.521-4.258-1.186-4.41,1.521,1.521,2.464,3.847S171.312,369.9,170.963,370.051Z" transform="translate(-144.15 -353.732)" fill="#263238"></path><path id="Path_210" data-name="Path 210" d="M178.588,365.493c-.35.152-1.521-1.673-2.327-4.212s-.852-4.73-.487-4.79,1.049,1.931,1.825,4.365S178.938,365.326,178.588,365.493Z" transform="translate(-139.808 -356.489)" fill="#263238"></path><path id="Path_211" data-name="Path 211" d="M191.51,357c.365.137.137,1.7-.5,3.5s-1.521,3.163-1.81,3.042-.137-1.7.5-3.5S191.145,356.852,191.51,357Z" transform="translate(-132.777 -356.227)" fill="#263238"></path><path id="Path_212" data-name="Path 212" d="M202.177,361.175c.259.289-.684,1.521-2.114,2.9s-2.813,2.175-3.041,1.9.684-1.6,2.114-2.92S201.919,360.932,202.177,361.175Z" transform="translate(-128.648 -354.072)" fill="#263238"></path><path id="Path_213" data-name="Path 213" d="M211.05,366.717c.213.319-.943,1.521-2.585,2.6s-3.163,1.749-3.376,1.43.943-1.521,2.585-2.585S210.791,366.4,211.05,366.717Z" transform="translate(-124.442 -351.204)" fill="#263238"></path><path id="Path_214" data-name="Path 214" d="M218.009,374.975c.152.365-1.673,1.521-4.076,2.494s-4.471,1.521-4.562,1.217,1.673-1.521,4.076-2.494S217.933,374.625,218.009,374.975Z" transform="translate(-122.2 -346.916)" fill="#263238"></path><path id="Path_215" data-name="Path 215" d="M220.351,384.057c0,.38-1.81.928-4.152,1.217s-4.273.213-4.319-.167,1.81-.928,4.152-1.217S220.305,383.677,220.351,384.057Z" transform="translate(-120.892 -342.311)" fill="#263238"></path><path id="Path_216" data-name="Path 216" d="M221.526,396.272c-.152.35-2.129-.167-4.41-1.171s-4.015-2.083-3.863-2.433,2.129.167,4.41,1.156S221.678,395.937,221.526,396.272Z" transform="translate(-120.182 -337.706)" fill="#263238"></path><path id="Path_217" data-name="Path 217" d="M220.74,406.577c-.122.35-2.631-.243-5.247-1.962s-4.167-3.756-3.893-4.015,2.19,1.247,4.654,2.844S220.877,406.2,220.74,406.577Z" transform="translate(-121.054 -333.533)" fill="#263238"></path><path id="Path_218" data-name="Path 218" d="M214.982,415.666c-.228.3-2.22-.867-4.136-2.935s-2.935-4.121-2.616-4.334,1.81,1.414,3.635,3.391S215.225,415.407,214.982,415.666Z" transform="translate(-122.823 -329.468)" fill="#263238"></path><path id="Path_219" data-name="Path 219" d="M169.079,414.209c.182.335-1.916,1.779-4.669,3.209s-5.14,2.327-5.307,1.977,1.9-1.779,4.669-3.209S168.9,413.921,169.079,414.209Z" transform="translate(-148.381 -326.461)" fill="#263238"></path><path id="Path_220" data-name="Path 220" d="M164.133,406.394c.152.35-1.521,1.521-3.741,2.464s-4.167,1.521-4.319,1.2,1.521-1.521,3.741-2.464S163.966,406.044,164.133,406.394Z" transform="translate(-149.959 -330.553)" fill="#263238"></path><path id="Path_221" data-name="Path 221" d="M161.418,399.526c0,.38-2.007.988-4.562,1.353s-4.745.365-4.806,0,2.023-.988,4.562-1.353S161.373,399.146,161.418,399.526Z" transform="translate(-152.049 -334.223)" fill="#263238"></path><path id="Path_222" data-name="Path 222" d="M171.773,395.671c.122.365-1.9,1.293-4.562,1.6s-4.851-.167-4.821-.532,2.114-.563,4.669-.852S171.667,395.291,171.773,395.671Z" transform="translate(-146.664 -336.178)" fill="#263238"></path><path id="Path_223" data-name="Path 223" d="M179.728,387.138c.106.35-1.521,1.171-3.65,1.369s-3.893-.258-3.848-.639,1.7-.547,3.711-.745S179.606,386.758,179.728,387.138Z" transform="translate(-141.54 -340.647)" fill="#263238"></path><path id="Path_224" data-name="Path 224" d="M181.3,381.12c-.122.365-1.855.107-3.878-.593s-3.543-1.521-3.407-1.916,1.855-.107,3.863.593S181.419,380.816,181.3,381.12Z" transform="translate(-140.616 -345.062)" fill="#263238"></path><path id="Path_225" data-name="Path 225" d="M183.048,375c-.259.274-1.521-.517-2.3-1.992s-.943-2.9-.578-3.042,1.019.988,1.779,2.3S183.26,374.739,183.048,375Z" transform="translate(-137.5 -349.478)" fill="#263238"></path><path id="Path_226" data-name="Path 226" d="M180.358,401.719c.091.38-1.4,1.065-3.346,1.521a12.975,12.975,0,0,1-2.813.411l-.289-.821c.517-.091.836,0,.9.091s-.137.4-.547.7l-.274-.806a12.311,12.311,0,0,1,2.692-.928C178.609,401.43,180.267,401.354,180.358,401.719Z" transform="translate(-140.665 -333.056)" fill="#263238"></path><path id="Path_227" data-name="Path 227" d="M183.021,413.828c.152.365-1.764,1.445-4.273,2.433s-4.638,1.521-4.775,1.125,1.764-1.445,4.273-2.418S182.884,413.478,183.021,413.828Z" transform="translate(-140.636 -326.687)" fill="#263238"></path><path id="Path_228" data-name="Path 228" d="M172.317,408.466c.122.365-1.141,1.125-2.844,1.7s-3.178.745-3.3.38,1.156-1.125,2.844-1.7S172.195,408.1,172.317,408.466Z" transform="translate(-144.698 -329.523)" fill="#263238"></path><path id="Path_229" data-name="Path 229" d="M174.139,384.811c-.091.365-2.312.152-4.882-.776s-4.441-2.129-4.273-2.464,2.236.274,4.73,1.156S174.139,384.431,174.139,384.811Z" transform="translate(-145.319 -343.476)" fill="#263238"></path><path id="Path_230" data-name="Path 230" d="M196.644,381.031c.213.319-1.049,1.521-2.8,2.677s-3.361,1.84-3.559,1.521,1.034-1.521,2.783-2.677S196.431,380.681,196.644,381.031Z" transform="translate(-132.147 -343.756)" fill="#263238"></path><path id="Path_231" data-name="Path 231" d="M197.841,393.274c.091.38-1.232.973-2.935,1.323s-3.133.335-3.224,0,1.247-.973,2.95-1.323S197.765,392.894,197.841,393.274Z" transform="translate(-131.413 -337.476)" fill="#263238"></path><path id="Path_232" data-name="Path 232" d="M199.922,408.187c-.167.35-2.053-.182-4.228-1.2s-3.817-2.1-3.65-2.448,2.053.182,4.228,1.186S200.089,407.837,199.922,408.187Z" transform="translate(-131.228 -331.524)" fill="#263238"></path><path id="Path_233" data-name="Path 233" d="M195.617,422.1c-.3.243-1.521-.76-2.753-2.235s-1.962-2.889-1.673-3.133,1.521.76,2.753,2.236S195.906,421.857,195.617,422.1Z" transform="translate(-131.698 -325.136)" fill="#263238"></path><path id="Path_234" data-name="Path 234" d="M195.063,372.036c.243.289-.578,1.308-1.962,2.007s-2.692.745-2.8.38.912-.989,2.175-1.627S194.834,371.717,195.063,372.036Z" transform="translate(-132.133 -348.448)" fill="#263238"></path><path id="Path_235" data-name="Path 235" d="M207.635,384.368c.122.35-1.521,1.247-3.711,1.521s-4.015-.106-3.984-.471,1.734-.608,3.787-.912S207.437,384,207.635,384.368Z" transform="translate(-127.11 -342.074)" fill="#263238"></path><path id="Path_236" data-name="Path 236" d="M205.415,373.3c.167.335-1.445,1.521-3.726,2.205s-4.273.73-4.319.365,1.718-.988,3.893-1.688S205.233,372.909,205.415,373.3Z" transform="translate(-128.448 -347.8)" fill="#263238"></path><path id="Path_237" data-name="Path 237" d="M211.492,402.182c0,.38-2.753.624-6.083,0s-5.809-1.794-5.688-2.144,2.737.2,5.931.76S211.507,401.787,211.492,402.182Z" transform="translate(-127.226 -333.868)" fill="#263238"></path><path id="Path_238" data-name="Path 238" d="M205.654,419.926c-.228.3-2.251-.882-4.273-2.92s-3.209-4.06-2.9-4.289,1.931,1.338,3.893,3.3S205.9,419.622,205.654,419.926Z" transform="translate(-127.897 -327.22)" fill="#263238"></path><path id="Path_239" data-name="Path 239" d="M194.328,360.2c.2.3-5.566,2.631-12.166,9.657A59.613,59.613,0,0,0,166.954,403.5a75.657,75.657,0,0,0,.912,20.606,160.582,160.582,0,0,0,3.863,16.531c1.338,4.653,2.57,8.395,3.391,10.98a26.6,26.6,0,0,1,1.171,4.06A23.39,23.39,0,0,1,174.6,451.8c-.973-2.54-2.357-6.235-3.817-10.873a139.14,139.14,0,0,1-4.182-16.607,73.846,73.846,0,0,1-1.034-20.986c1.718-14.979,8.912-27.374,15.892-34.156a43.873,43.873,0,0,1,9.125-7.132,28.318,28.318,0,0,1,2.8-1.521A3.013,3.013,0,0,1,194.328,360.2Z" transform="translate(-145.176 -354.56)" fill="#fff"></path><path id="Path_240" data-name="Path 240" d="M203.729,456.4c-.3-.152,3.133-5.444,6.265-14.979a84.524,84.524,0,0,0,3.741-38.475,72.127,72.127,0,0,0-5.931-20.53,48.375,48.375,0,0,0-10.113-14.082,36.788,36.788,0,0,0-9.915-6.266c-2.585-1.08-4.121-1.338-4.106-1.521a3.269,3.269,0,0,1,1.141.076,21.7,21.7,0,0,1,3.163.852,34.642,34.642,0,0,1,10.372,6.083,47.614,47.614,0,0,1,10.645,14.28,70.99,70.99,0,0,1,6.083,20.88,81.649,81.649,0,0,1-4.2,39.007c-.776,2.4-1.794,4.456-2.555,6.326a36.9,36.9,0,0,1-2.312,4.562A24.923,24.923,0,0,1,203.729,456.4Z" transform="translate(-135.583 -354.386)" fill="#fff"></path><path id="Path_241" data-name="Path 241" d="M161.37,421.4h76.813l.471,15.375H161.37Z" transform="translate(-147.195 -322.687)" fill="#263238"></path><path id="Path_242" data-name="Path 242" d="M165.66,426.45l4.41,46.946h56.161l4.517-46.429Z" transform="translate(-144.961 -320.057)" fill="#263238"></path><path id="Path_243" data-name="Path 243" d="M238.649,431.87c0,.38-17.291.7-38.627.7s-38.642-.319-38.642-.7,17.291-.7,38.642-.7S238.649,431.489,238.649,431.87Z" transform="translate(-147.19 -317.599)" fill="#455a64"></path><path id="Path_244" data-name="Path 244" d="M227.349,442.552a11.5,11.5,0,0,1-1.612,3.041,44.187,44.187,0,0,1-5.961,7.041l-.35.335-.35-.365a111.546,111.546,0,0,0-15.055-13.185h.852l-6.676,5.855-7.893,6.874-.441.38-.441-.38L176.6,441.366l.745-.076-6.63,8.09a18.25,18.25,0,0,1-2.616,2.859,20.983,20.983,0,0,1,2.144-3.209l6.281-8.395.319-.426.426.35,13.018,10.554h-.867l7.847-6.9,6.707-5.84.411-.35.441.319a99.119,99.119,0,0,1,14.979,13.6h-.7a79.5,79.5,0,0,0,8.242-9.383Z" transform="translate(-143.691 -314.032)" fill="#455a64"></path></g></g></svg>